<?xml version="1.0" encoding="iso-8859-1"?>
<!-- Generator: Adobe Illustrator 19.0.0, SVG Export Plug-In . SVG Version: 6.00 Build 0)  -->
<svg version="1.1" id="Capa_1" xmlns="http://www.w3.org/2000/svg" xmlns:xlink="http://www.w3.org/1999/xlink" x="0px" y="0px"
	 viewBox="0 0 436.907 436.907" style="enable-background:new 0 0 436.907 436.907;" xml:space="preserve">
<circle style="fill:#45B39C;" cx="218.453" cy="218.453" r="218.453"/>
<g style="opacity:0.1;">
	<path d="M436.907,218.453c0-7.248-0.373-14.409-1.063-21.476L329.303,90.456l-45.738,10.342l-27.717,6.281l-18.022,4.096
		l-27.716,6.28l-32.7,7.407l-13.039,2.935l-27.58,6.246l-18.159,4.13l-27.102,6.144l8.806,38.81l138.001-31.266l27.716-6.246
		l18.056-4.096l-182.545,41.882v39.8h-0.341v123.255h0.018l88.515,88.515c9.397,1.234,18.962,1.936,28.696,1.936
		C339.102,436.907,436.907,339.102,436.907,218.453z"/>
</g>
<rect x="101.239" y="223.198" style="fill:#64798A;" width="244.122" height="123.255"/>
<rect x="101.567" y="183.392" style="fill:#2F4859;" width="243.78" height="39.813"/>
<g>
	<polygon style="fill:#FFFFFF;" points="318.39,223.204 289.976,223.204 316.945,183.392 345.359,183.392 	"/>
	<polygon style="fill:#FFFFFF;" points="271.485,223.204 243.071,223.204 270.04,183.392 298.454,183.392 	"/>
	<polygon style="fill:#FFFFFF;" points="224.58,223.204 196.166,223.204 223.135,183.392 251.549,183.392 	"/>
	<polygon style="fill:#FFFFFF;" points="177.676,223.204 149.262,223.204 176.231,183.392 204.645,183.392 	"/>
	<polygon style="fill:#FFFFFF;" points="130.771,223.204 102.357,223.204 129.326,183.392 157.74,183.392 	"/>
</g>
<rect x="92.943" y="116.873" transform="matrix(-0.9753 0.2209 -0.2209 -0.9753 454.5732 222.7208)" style="fill:#2F4859;" width="243.781" height="39.81"/>
<g>
	<polygon style="fill:#FFFFFF;" points="311.808,135.239 284.096,141.515 301.605,96.73 329.317,90.453 	"/>
	<polygon style="fill:#FFFFFF;" points="266.062,145.6 238.35,151.877 255.859,107.091 283.571,100.815 	"/>
	<polygon style="fill:#FFFFFF;" points="220.316,155.961 192.604,162.238 210.112,117.453 237.824,111.176 	"/>
	<polygon style="fill:#FFFFFF;" points="174.57,166.323 146.858,172.599 164.366,127.814 192.078,121.537 	"/>
	<polygon style="fill:#FFFFFF;" points="128.824,176.684 101.112,182.96 118.62,138.175 146.332,131.898 	"/>
</g>
<rect x="101.239" y="338.603" style="fill:#3A556A;" width="244.122" height="7.847"/>
<g>
</g>
<g>
</g>
<g>
</g>
<g>
</g>
<g>
</g>
<g>
</g>
<g>
</g>
<g>
</g>
<g>
</g>
<g>
</g>
<g>
</g>
<g>
</g>
<g>
</g>
<g>
</g>
<g>
</g>
</svg>
