<?xml version="1.0" encoding="iso-8859-1"?>
<!-- Generator: Adobe Illustrator 19.0.0, SVG Export Plug-In . SVG Version: 6.00 Build 0)  -->
<svg version="1.1" id="Capa_1" xmlns="http://www.w3.org/2000/svg" xmlns:xlink="http://www.w3.org/1999/xlink" x="0px" y="0px"
	 viewBox="0 0 491.52 491.52" style="enable-background:new 0 0 491.52 491.52;" xml:space="preserve">
<circle style="fill:#E05B49;" cx="245.76" cy="245.76" r="245.76"/>
<rect x="121.667" y="212.588" style="fill:#3A556A;" width="252.723" height="173.972"/>
<path style="fill:#64798A;" d="M121.666,386.56h252.727V212.585C247.396,222.28,165.37,282.776,121.666,386.56z"/>
<rect x="118.584" y="119.403" transform="matrix(-0.9933 0.1153 -0.1153 -0.9933 504.2982 249.0089)" style="fill:#FFFFFF;" width="252.724" height="39.378"/>
<polygon style="fill:#E56353;" points="372.711,144.074 358.257,145.753 330.894,109.288 345.348,107.61 "/>
<rect x="121.667" y="173.21" style="fill:#FFFFFF;" width="252.723" height="39.378"/>
<g>
	<polygon style="fill:#E56353;" points="374.393,173.209 359.842,173.209 336.867,212.585 351.418,212.585 	"/>
	<polygon style="fill:#E56353;" points="339.068,147.98 324.615,149.658 297.252,113.193 311.706,111.516 	"/>
	<polygon style="fill:#E56353;" points="340.525,173.209 325.974,173.209 302.999,212.585 317.55,212.585 	"/>
	<polygon style="fill:#E56353;" points="305.426,151.886 290.972,153.564 263.609,117.099 278.063,115.421 	"/>
	<polygon style="fill:#E56353;" points="306.657,173.209 292.106,173.209 269.131,212.585 283.682,212.585 	"/>
	<polygon style="fill:#E56353;" points="271.784,155.791 257.33,157.47 229.967,121.005 244.421,119.327 	"/>
	<polygon style="fill:#E56353;" points="272.789,173.209 258.238,173.209 235.263,212.585 249.814,212.585 	"/>
	<polygon style="fill:#E56353;" points="238.141,159.697 223.687,161.375 196.324,124.911 210.779,123.233 	"/>
	<polygon style="fill:#E56353;" points="238.921,173.209 224.37,173.209 201.395,212.585 215.946,212.585 	"/>
	<polygon style="fill:#E56353;" points="204.499,163.603 190.045,165.281 162.682,128.817 177.136,127.138 	"/>
	<polygon style="fill:#E56353;" points="205.053,173.209 190.502,173.209 167.527,212.585 182.078,212.585 	"/>
	<polygon style="fill:#E56353;" points="170.857,167.508 156.403,169.187 129.04,132.722 143.494,131.044 	"/>
	<polygon style="fill:#E56353;" points="171.185,173.209 156.634,173.209 133.659,212.585 148.21,212.585 	"/>
</g>
<g>
	<rect x="145.439" y="253.44" style="fill:#2F4859;" width="205.158" height="4.593"/>
	<rect x="145.439" y="348.877" style="fill:#2F4859;" width="205.158" height="4.593"/>
	<rect x="293.478" y="253.44" style="fill:#2F4859;" width="4.593" height="97.741"/>
	<rect x="198.011" y="253.44" style="fill:#2F4859;" width="4.593" height="97.741"/>
	<path style="fill:#2F4859;" d="M199.144,199.556l-64.449-64.448c-4.809-4.808-13.029-1.403-13.029,5.397v64.447
		c0,4.216,3.417,7.633,7.632,7.633h64.449C200.546,212.585,203.953,204.364,199.144,199.556z"/>
</g>
<path style="fill:#64798A;" d="M129.298,207.991c-1.674,0-3.038-1.362-3.038-3.038v-64.447c0-2.107,1.809-3.054,3.092-3.054
	c0.79,0,1.495,0.305,2.096,0.907l64.447,64.445c1.297,1.297,0.893,2.746,0.659,3.312c-0.233,0.563-0.974,1.876-2.809,1.876H129.298z
	"/>
<g>
	<circle style="fill:#3A556A;" cx="136.008" cy="160.804" r="5.033"/>
	<circle style="fill:#3A556A;" cx="136.008" cy="198.39" r="5.033"/>
	<circle style="fill:#3A556A;" cx="171.136" cy="198.39" r="5.033"/>
</g>
<g>
</g>
<g>
</g>
<g>
</g>
<g>
</g>
<g>
</g>
<g>
</g>
<g>
</g>
<g>
</g>
<g>
</g>
<g>
</g>
<g>
</g>
<g>
</g>
<g>
</g>
<g>
</g>
<g>
</g>
</svg>
