<?xml version="1.0" encoding="iso-8859-1"?>
<!-- Generator: Adobe Illustrator 19.0.0, SVG Export Plug-In . SVG Version: 6.00 Build 0)  -->
<svg version="1.1" id="Capa_1" xmlns="http://www.w3.org/2000/svg" xmlns:xlink="http://www.w3.org/1999/xlink" x="0px" y="0px"
	 viewBox="0 0 512 512" style="enable-background:new 0 0 512 512;" xml:space="preserve">
<g>
	<path style="fill:#E1E8ED;" d="M427.519,176.974c0,21.52,17.479,38.957,39.051,38.957c21.572,0,39.051-17.437,39.051-38.957
		s-17.479-38.957-39.051-38.957S427.519,155.454,427.519,176.974"/>
	<path style="fill:#E1E8ED;" d="M5.756,176.974c0,21.52,17.479,38.957,39.051,38.957s39.051-17.437,39.051-38.957
		s-17.479-38.957-39.051-38.957S5.756,155.454,5.756,176.974"/>
	<path style="fill:#E1E8ED;" d="M43.339,231.514h424.028v-62.331H43.339V231.514z"/>
	<path style="fill:#E1E8ED;" d="M52.619,200.348h408.406v-62.331H42.855L52.619,200.348z"/>
</g>
<g>
	<path style="fill:#FFD983;" d="M346.305,125.775c0,28.603,23.188,51.789,51.789,51.789s51.789-23.188,51.789-51.789
		s-23.188-51.789-51.789-51.789S346.305,97.173,346.305,125.775"/>
	<path style="fill:#FFD983;" d="M316.709,81.384c0,20.436,16.558,36.993,36.993,36.993s36.993-16.558,36.993-36.993
		s-16.558-36.993-36.993-36.993C333.269,44.391,316.709,60.949,316.709,81.384"/>
	<path style="fill:#FFD983;" d="M287.118,110.978c0,20.436,16.558,36.993,36.993,36.993s36.991-16.559,36.991-36.993
		s-16.558-36.993-36.993-36.993S287.118,90.544,287.118,110.978"/>
	<path style="fill:#FFD983;" d="M227.929,81.384c0,20.436,16.558,36.993,36.993,36.993s36.993-16.558,36.993-36.993
		s-16.558-36.993-36.993-36.993S227.929,60.949,227.929,81.384"/>
	<path style="fill:#FFD983;" d="M227.929,110.978c0,20.436,16.558,36.993,36.993,36.993s36.993-16.558,36.993-36.993
		s-16.558-36.993-36.993-36.993S227.929,90.544,227.929,110.978"/>
	<path style="fill:#FFD983;" d="M139.147,36.993c0,20.436,16.558,36.993,36.993,36.993s36.993-16.558,36.993-36.993
		S196.576,0,176.14,0S139.147,16.559,139.147,36.993"/>
	<path style="fill:#FFD983;" d="M139.147,110.978c0,20.436,16.558,36.993,36.993,36.993s36.993-16.558,36.993-36.993
		s-16.558-36.993-36.993-36.993S139.147,90.544,139.147,110.978"/>
	<path style="fill:#FFD983;" d="M124.351,155.369c0,20.436,16.558,36.993,36.993,36.993s36.993-16.558,36.993-36.993
		s-16.558-36.993-36.993-36.993S124.351,134.935,124.351,155.369"/>
	<path style="fill:#FFD983;" d="M183.538,155.369c0,20.436,16.558,36.993,36.993,36.993s36.991-16.559,36.991-36.993
		s-16.558-36.993-36.993-36.993S183.538,134.935,183.538,155.369"/>
	<path style="fill:#FFD983;" d="M227.929,170.166c0,20.436,16.558,36.993,36.993,36.993s36.993-16.558,36.993-36.993
		s-16.558-36.993-36.993-36.993S227.929,149.731,227.929,170.166"/>
	<path style="fill:#FFD983;" d="M257.523,155.369c0,20.436,16.558,36.993,36.993,36.993s36.993-16.558,36.993-36.993
		s-16.558-36.993-36.993-36.993S257.523,134.935,257.523,155.369"/>
	<path style="fill:#FFD983;" d="M287.118,155.369c0,20.436,16.558,36.993,36.993,36.993s36.991-16.559,36.991-36.993
		s-16.558-36.993-36.993-36.993S287.118,134.935,287.118,155.369"/>
	<path style="fill:#FFD983;" d="M316.709,170.166c0,20.436,16.558,36.993,36.993,36.993s36.993-16.558,36.993-36.993
		s-16.558-36.993-36.993-36.993C333.269,133.173,316.709,149.731,316.709,170.166"/>
	<path style="fill:#FFD983;" d="M361.101,170.166c0,20.436,16.558,36.993,36.993,36.993s36.993-16.558,36.993-36.993
		s-16.558-36.993-36.993-36.993S361.101,149.731,361.101,170.166"/>
	<path style="fill:#FFD983;" d="M79.96,184.962c0,20.436,16.558,36.993,36.993,36.993s36.991-16.558,36.991-36.993
		s-16.558-36.993-36.993-36.993S79.96,164.527,79.96,184.962"/>
	<path style="fill:#FFD983;" d="M109.554,96.18c0,20.436,16.558,36.993,36.993,36.993s36.993-16.558,36.993-36.993
		s-16.559-36.993-36.995-36.993C126.111,59.189,109.554,75.746,109.554,96.18"/>
	<path style="fill:#FFD983;" d="M65.163,140.571c0,20.436,16.558,36.993,36.993,36.993s36.993-16.558,36.993-36.993
		s-16.559-36.993-36.995-36.993C81.72,103.58,65.163,120.137,65.163,140.571"/>
	<path style="fill:#FFD983;" d="M168.741,81.384c0,20.436,16.558,36.993,36.993,36.993s36.993-16.558,36.993-36.993
		s-16.558-36.993-36.993-36.993S168.741,60.949,168.741,81.384"/>
	<path style="fill:#FFD983;" d="M183.538,110.978c0,20.436,16.558,36.993,36.993,36.993s36.991-16.559,36.991-36.993
		s-16.558-36.993-36.993-36.993S183.538,90.544,183.538,110.978"/>
	<path style="fill:#FFD983;" d="M109.554,51.791c0,12.267,9.943,22.196,22.196,22.196s22.194-9.929,22.194-22.196
		S144,29.595,131.747,29.595S109.554,39.524,109.554,51.791"/>
	<path style="fill:#FFD983;" d="M65.163,96.18c0,12.267,9.943,22.196,22.196,22.196s22.196-9.929,22.196-22.196
		s-9.943-22.196-22.196-22.196S65.163,83.913,65.163,96.18"/>
	<path style="fill:#FFD983;" d="M50.365,170.166c0,12.267,9.943,22.196,22.196,22.196s22.196-9.929,22.196-22.196
		c0-12.267-9.943-22.196-22.196-22.196S50.365,157.9,50.365,170.166"/>
	<path style="fill:#FFD983;" d="M420.289,170.166c0,12.267,9.943,22.196,22.195,22.196c12.252,0,22.196-9.929,22.196-22.196
		c0-12.267-9.943-22.196-22.196-22.196C430.232,147.971,420.289,157.9,420.289,170.166"/>
	<path style="fill:#FFD983;" d="M94.756,81.384c0,12.267,9.943,22.196,22.196,22.196s22.196-9.929,22.196-22.196
		s-9.943-22.196-22.196-22.196S94.756,69.118,94.756,81.384"/>
</g>
<g>
	<path style="fill:#FFAC33;" d="M139.147,66.587c0,12.252,9.943,22.196,22.196,22.196c12.252,0,22.196-9.943,22.196-22.196
		s-9.943-22.196-22.196-22.196S139.147,54.336,139.147,66.587"/>
	<path style="fill:#FFAC33;" d="M346.305,140.571c0,12.252,9.943,22.196,22.195,22.196c12.252,0,22.196-9.943,22.196-22.196
		c0-12.252-9.943-22.196-22.196-22.196C356.248,118.376,346.305,128.32,346.305,140.571"/>
	<path style="fill:#FFAC33;" d="M316.493,157.001c0,12.252,9.943,22.196,22.195,22.196c12.252,0,22.196-9.943,22.196-22.196
		s-9.943-22.196-22.196-22.196C326.436,134.805,316.493,144.749,316.493,157.001"/>
	<path style="fill:#FFAC33;" d="M346.305,170.166c0,12.252,9.943,22.196,22.195,22.196c12.252,0,22.196-9.943,22.196-22.196
		s-9.943-22.196-22.196-22.196C356.248,147.971,346.305,157.914,346.305,170.166"/>
	<path style="fill:#FFAC33;" d="M361.101,170.166c0,12.252,9.943,22.196,22.196,22.196c12.252,0,22.195-9.943,22.195-22.196
		s-9.943-22.196-22.195-22.196C371.044,147.971,361.101,157.914,361.101,170.166"/>
	<path style="fill:#FFAC33;" d="M390.696,170.166c0,12.252,9.943,22.196,22.195,22.196c12.252,0,22.196-9.943,22.196-22.196
		s-9.943-22.196-22.196-22.196C400.639,147.971,390.696,157.914,390.696,170.166"/>
	<path style="fill:#FFAC33;" d="M287.118,184.962c0,12.252,9.943,22.196,22.196,22.196c12.252,0,22.195-9.943,22.195-22.196
		s-9.943-22.196-22.195-22.196C297.061,162.767,287.118,172.71,287.118,184.962"/>
	<path style="fill:#FFAC33;" d="M227.059,127.298c0,12.252,9.943,22.196,22.196,22.196s22.196-9.943,22.196-22.196
		s-9.945-22.196-22.197-22.196C237,105.102,227.059,115.045,227.059,127.298"/>
	<path style="fill:#FFAC33;" d="M65.163,170.166c0,12.252,9.943,22.196,22.196,22.196s22.196-9.943,22.196-22.196
		s-9.943-22.196-22.196-22.196S65.163,157.914,65.163,170.166"/>
	<path style="fill:#FFAC33;" d="M242.727,155.369c0,12.252,9.943,22.196,22.196,22.196c12.252,0,22.195-9.943,22.195-22.196
		c0-12.252-9.943-22.196-22.195-22.196C252.67,133.173,242.727,143.116,242.727,155.369"/>
	<path style="fill:#FFAC33;" d="M257.523,184.962c0,12.252,9.943,22.196,22.196,22.196c12.252,0,22.196-9.943,22.196-22.196
		s-9.943-22.196-22.196-22.196C267.466,162.767,257.523,172.71,257.523,184.962"/>
	<path style="fill:#FFAC33;" d="M94.756,103.58c0,8.169,6.629,14.796,14.796,14.796s14.796-6.629,14.796-14.796
		c0-8.169-6.629-14.796-14.796-14.796C101.387,88.784,94.756,95.411,94.756,103.58"/>
	<path style="fill:#FFAC33;" d="M94.756,177.564c0,8.169,6.629,14.796,14.796,14.796s14.796-6.629,14.796-14.796
		c0-8.169-6.629-14.796-14.796-14.796C101.387,162.767,94.756,169.395,94.756,177.564"/>
	<path style="fill:#FFAC33;" d="M331.509,88.782c0,8.169,6.629,14.796,14.796,14.796c8.169,0,14.796-6.629,14.796-14.796
		c0-8.169-6.629-14.796-14.796-14.796C338.136,73.986,331.509,80.615,331.509,88.782"/>
	<path style="fill:#FFAC33;" d="M139.147,147.969c0,16.336,13.243,29.595,29.595,29.595c16.336,0,29.595-13.257,29.595-29.595
		c0-16.35-13.257-29.595-29.595-29.595C152.39,118.376,139.147,131.619,139.147,147.969"/>
	<path style="fill:#FFAC33;" d="M183.538,162.767c0,16.336,13.243,29.595,29.595,29.595c16.336,0,29.595-13.257,29.595-29.595
		c0-16.35-13.257-29.595-29.595-29.595C196.781,133.173,183.538,146.416,183.538,162.767"/>
	<path style="fill:#FFAC33;" d="M139.147,192.36c0,16.336,13.243,29.595,29.595,29.595c16.336,0,29.595-13.257,29.595-29.595
		c0-16.35-13.257-29.595-29.595-29.595C152.39,162.767,139.147,176.01,139.147,192.36"/>
	<path style="fill:#FFAC33;" d="M183.538,118.376c0,16.336,13.243,29.595,29.595,29.595c16.336,0,29.595-13.257,29.595-29.595
		c0-16.35-13.257-29.595-29.595-29.595C196.781,88.782,183.538,102.025,183.538,118.376"/>
</g>
<g>
	<path style="fill:#FFD983;" d="M198.336,140.571c0,12.267,9.943,22.196,22.196,22.196s22.196-9.929,22.196-22.196
		s-9.943-22.196-22.196-22.196S198.336,128.304,198.336,140.571"/>
	<path style="fill:#FFD983;" d="M331.509,170.166c0,12.267,9.943,22.196,22.196,22.196c12.252,0,22.195-9.929,22.195-22.196
		c0-12.267-9.943-22.196-22.195-22.196C341.452,147.969,331.509,157.9,331.509,170.166"/>
	<path style="fill:#FFD983;" d="M361.101,184.962c0,12.267,9.943,22.196,22.196,22.196c12.252,0,22.195-9.929,22.195-22.196
		c0-12.267-9.943-22.196-22.195-22.196C371.044,162.767,361.101,172.695,361.101,184.962"/>
	<path style="fill:#FFD983;" d="M227.929,170.166c0,12.267,9.943,22.196,22.196,22.196c12.252,0,22.195-9.929,22.195-22.196
		c0-12.267-9.943-22.196-22.196-22.196C237.872,147.969,227.929,157.9,227.929,170.166"/>
	<path style="fill:#FFD983;" d="M183.538,170.166c0,12.267,9.943,22.196,22.196,22.196s22.196-9.929,22.196-22.196
		c0-12.267-9.943-22.196-22.196-22.196C193.481,147.971,183.538,157.9,183.538,170.166"/>
	<path style="fill:#FFD983;" d="M198.336,170.166c0,12.267,9.943,22.196,22.196,22.196s22.196-9.929,22.196-22.196
		c0-12.267-9.943-22.196-22.196-22.196C208.279,147.969,198.336,157.9,198.336,170.166"/>
</g>
<path style="fill:#E1E8ED;" d="M115.452,169.181H395.94c34.281,0,61.053,28.018,59.495,62.269l-9.925,218.281
	C443.952,483.982,414.641,512,380.359,512H131.035c-34.297,0-63.607-28.018-65.167-62.269L55.943,231.45
	C54.399,197.199,81.155,169.181,115.452,169.181z"/>
<g>
	<path style="fill:#DA2F47;" d="M253.07,214.789c9.899-1.707,23.374-2.889,23.374,16.715l0.016,31.182V512h-46.762V231.505
		C229.698,211.9,243.173,213.083,253.07,214.789z"/>
	<path style="fill:#DA2F47;" d="M159.576,214.789c9.899-1.707,23.374-2.889,23.374,16.715v31.182V512h-46.748V231.505
		C136.201,211.9,149.677,213.083,159.576,214.789z"/>
	<path style="fill:#DA2F47;" d="M66.205,449.717L55.625,231.466c-0.246-6.088,0.417-11.971,1.84-17.543
		c2.907-0.03,5.897,0.397,8.616,0.867c9.899-1.707,23.374-2.889,23.374,16.715v31.182v233.869
		C75.916,485.117,66.942,468.341,66.205,449.717z"/>
	<path style="fill:#DA2F47;" d="M346.567,214.789c9.899-1.707,23.374-2.889,23.374,16.715v31.182V512h-46.748V231.505
		C323.193,211.9,336.668,213.083,346.567,214.789z"/>
	<path style="fill:#DA2F47;" d="M416.689,231.505c0-19.606,13.475-18.422,23.374-16.715c4.477-0.771,9.682-1.434,14.044-0.117
		c1.296,5.349,1.895,10.978,1.662,16.793l-10.597,218.251c-0.838,20.932-12.061,39.526-28.486,50.834V231.505H416.689z"/>
</g>
<polygon style="opacity:0.6;fill:#99AAB5;enable-background:new    ;" points="455.666,231.514 454.291,262.679 57.141,262.679 
	55.712,231.514 "/>
<path style="fill:#FFFFFF;" d="M473.847,184.765c0,8.601-6.981,15.583-15.583,15.583H53.116c-8.617,0-15.583-6.981-15.583-15.583
	c0-8.601,6.965-15.583,15.583-15.583h405.148C466.866,169.183,473.847,176.164,473.847,184.765z"/>
<path style="fill:#E1E8ED;" d="M17.567,149.704c0,0,5.36,2.914,8.275,7.059c0.915,1.294,0.95,7.894,0.397,16.418
	c5.243-2.361,11.233-3.779,17.623-3.968v-0.03h9.255c-8.617,0-15.583,6.981-15.583,15.583c0,8.601,6.965,15.583,15.583,15.583
	h405.148c8.601,0,15.583-6.981,15.583-15.583c0-8.601-6.981-15.583-15.583-15.583h8.587v0.016c6.645,0.106,12.882,1.54,18.31,3.99
	c-0.73-8.516-0.822-15.126,0.097-16.425c2.914-4.146,8.275-7.059,8.275-7.059c4.078,4.309,30.561,32.901,7.651,64.132
	c-6.177,10.274-19.195,17.419-34.333,17.662v0.016H43.86v-0.03c-16.589-0.491-30.515-9.278-35.51-21.325
	C-9.701,180.489,13.671,153.823,17.567,149.704z"/>
<g>
</g>
<g>
</g>
<g>
</g>
<g>
</g>
<g>
</g>
<g>
</g>
<g>
</g>
<g>
</g>
<g>
</g>
<g>
</g>
<g>
</g>
<g>
</g>
<g>
</g>
<g>
</g>
<g>
</g>
</svg>
