<?xml version="1.0" encoding="iso-8859-1"?>
<!-- Generator: Adobe Illustrator 19.0.0, SVG Export Plug-In . SVG Version: 6.00 Build 0)  -->
<svg version="1.1" id="Capa_1" xmlns="http://www.w3.org/2000/svg" xmlns:xlink="http://www.w3.org/1999/xlink" x="0px" y="0px"
	 viewBox="0 0 512 512" style="enable-background:new 0 0 512 512;" xml:space="preserve">
<path style="fill:#989DA0;" d="M80.492,414.937v31.591c0,6.486,5.259,11.745,11.746,11.745h242.738
	c6.487,0,11.746-5.259,11.746-11.745v-31.591H80.492z"/>
<path style="fill:#878A8C;" d="M100.622,446.528v-31.591H80.492v31.591c0,6.486,5.259,11.745,11.746,11.745h20.129
	C105.88,458.273,100.622,453.014,100.622,446.528z"/>
<rect x="371.461" y="257.368" style="fill:#989DA0;" width="51.166" height="104.151"/>
<rect x="371.461" y="257.368" style="fill:#878A8C;" width="25.583" height="104.151"/>
<path style="fill:#414356;" d="M419.535,256.327v106.243c9.999,24.733,34.793,42.329,63.909,42.654V213.672
	C454.328,213.997,429.534,231.593,419.535,256.327z"/>
<path style="fill:#2F3244;" d="M419.535,342.083v20.486c9.999,24.733,34.793,42.329,63.909,42.654v-20.486
	C454.328,384.412,429.534,366.816,419.535,342.083z"/>
<path style="fill:#989DA0;" d="M497.206,419.613c-8.171,0-14.793-6.623-14.793-14.793V214.668c0-8.17,6.622-14.793,14.793-14.793
	c8.172,0,14.794,6.623,14.794,14.793v190.151C512,412.99,505.378,419.613,497.206,419.613z"/>
<path style="fill:#878A8C;" d="M497.206,404.82V214.668c0-5.472,2.979-10.24,7.397-12.799c-9.844-5.702-22.191,1.42-22.191,12.799
	v190.151c0,11.367,12.337,18.505,22.191,12.798C500.185,415.059,497.206,410.291,497.206,404.82z"/>
<path style="fill:#E5E5E5;" d="M360.36,199.088c-6.191,0-284.29,0-293.507,0c-7.844,0-14.203,6.359-14.203,14.203v57.279
	c0,9.498,0,128.363,0,133.263c0,7.844,6.359,14.203,14.203,14.203c8.909,0,287.901,0,293.507,0c7.844,0,14.203-6.359,14.203-14.203
	c0-7.547,0-184.115,0-190.542C374.563,205.447,368.204,199.088,360.36,199.088z"/>
<path style="fill:#D1CFCF;" d="M72.781,403.831c0-6.642,0-183.103,0-190.542c0-7.844,6.359-14.203,14.203-14.203h-20.13
	c-7.844,0-14.203,6.359-14.203,14.203v57.279c0,9.498,0,128.363,0,133.263c0,7.844,6.359,14.203,14.203,14.203h20.129
	C79.14,418.034,72.781,411.675,72.781,403.831z"/>
<path style="fill:#D63322;" d="M332.91,327.706H96.314c-2.85,0-5.162,2.31-5.162,5.162v42.922c0,2.851,2.311,5.162,5.162,5.162
	H332.91c2.85,0,5.162-2.31,5.162-5.162v-42.922C338.071,330.017,335.761,327.706,332.91,327.706z"/>
<path style="fill:#C12D21;" d="M332.91,354.328H96.314c-2.85,0-5.162-2.31-5.162-5.162v26.623c0,2.851,2.311,5.162,5.162,5.162
	H332.91c2.85,0,5.162-2.31,5.162-5.162v-26.623C338.071,352.018,335.761,354.328,332.91,354.328z"/>
<g>
	<path style="fill:#989DA0;" d="M217.795,292.095c-4.853-4.852-1.396-13.214,5.482-13.214c6.909,0,10.315,8.406,5.471,13.214
		C225.713,295.131,220.806,295.106,217.795,292.095z"/>
	<path style="fill:#989DA0;" d="M245.513,286.623c0-4.227,3.43-7.742,7.742-7.742c6.909,0,10.315,8.406,5.471,13.214
		C253.851,296.972,245.513,293.485,245.513,286.623z"/>
	<path style="fill:#989DA0;" d="M275.492,286.623c0-6.856,8.368-10.353,13.214-5.471c3.052,3.053,2.995,7.97,0,10.943
		C283.848,296.988,275.492,293.459,275.492,286.623z"/>
	<path style="fill:#989DA0;" d="M313.223,294.366c-6.899,0-10.32-8.376-5.482-13.214c3.011-3.011,7.918-3.036,10.953,0
		C323.573,286.033,320.068,294.366,313.223,294.366z"/>
</g>
<path style="fill:#414356;" d="M118.417,81.765c-49.834,0-90.378,40.543-90.378,90.379c0,49.833,40.543,90.377,90.378,90.377
	s90.378-40.542,90.378-90.377C208.794,122.309,168.251,81.765,118.417,81.765z"/>
<path style="fill:#2F3244;" d="M49.718,172.144c0-46.167,34.795-84.354,79.538-89.726c-54.074-6.485-101.217,35.884-101.217,89.726
	c0,49.833,40.543,90.377,90.378,90.377c3.668,0,7.284-0.226,10.839-0.652C84.514,256.496,49.718,218.309,49.718,172.144z"/>
<path style="fill:#BABABA;" d="M118.417,290.561C53.121,290.561,0,237.438,0,172.144C0,106.847,53.121,53.727,118.417,53.727
	s118.417,53.12,118.417,118.417C236.833,237.438,183.712,290.561,118.417,290.561z M118.417,83.314
	c-48.981,0-88.829,39.85-88.829,88.83s39.849,88.828,88.829,88.828s88.829-39.848,88.829-88.828
	C207.246,123.163,167.397,83.314,118.417,83.314z"/>
<path style="fill:#989DA0;" d="M20.646,172.144c0-61.818,47.615-112.713,108.093-117.961C59.181,48.145,0,103.17,0,172.144
	c0,65.294,53.121,118.417,118.417,118.417c3.479,0,6.92-0.159,10.323-0.454C68.261,284.856,20.646,233.96,20.646,172.144z"/>
<g>
	<path style="fill:#BABABA;" d="M118.417,128.336c-4.276,0-7.742-3.465-7.742-7.742v-2.367c0-4.277,3.467-7.742,7.742-7.742
		s7.742,3.466,7.742,7.742v2.367C126.159,124.871,122.693,128.336,118.417,128.336z"/>
	<path style="fill:#BABABA;" d="M118.417,232.88c-4.276,0-7.742-3.465-7.742-7.742v-2.367c0-4.277,3.467-7.742,7.742-7.742
		s7.742,3.465,7.742,7.742v2.367C126.159,229.413,122.693,232.88,118.417,232.88z"/>
	<path style="fill:#BABABA;" d="M67.322,179.427l-2.368-0.002c-4.276-0.004-7.739-3.473-7.736-7.75
		c0.003-4.274,3.47-7.735,7.742-7.735c0.01,0,2.364,0.002,2.374,0.002c4.276,0.004,7.739,3.473,7.736,7.75
		C75.067,175.946,71.623,179.427,67.322,179.427z"/>
	<path style="fill:#BABABA;" d="M171.871,179.427h-2.368c-4.276,0-7.742-3.466-7.742-7.742s3.467-7.742,7.742-7.742h2.368
		c4.276,0,7.742,3.465,7.742,7.742C179.614,175.96,176.147,179.427,171.871,179.427z"/>
	<circle style="fill:#BABABA;" cx="118.418" cy="171.489" r="18.344"/>
</g>
<path style="fill:#989DA0;" d="M127.589,155.614c-12.217-7.079-27.516,1.776-27.516,15.87c0,14.113,15.313,22.94,27.516,15.87
	C115.361,180.273,115.379,162.686,127.589,155.614z"/>
<path style="fill:#414356;" d="M341.28,125.364c-25.794,0-46.78,20.985-46.78,46.779c0,25.793,20.985,46.778,46.78,46.778
	c25.794,0,46.778-20.984,46.778-46.778C388.057,146.35,367.073,125.364,341.28,125.364z"/>
<path style="fill:#2F3244;" d="M317.807,172.144c0-21.773,14.951-40.117,35.126-45.31c-3.727-0.959-7.631-1.47-11.653-1.47
	c-25.794,0-46.78,20.985-46.78,46.779c0,30.387,28.765,52.94,58.433,45.308C332.758,212.259,317.807,193.916,317.807,172.144z"/>
<path style="fill:#BABABA;" d="M341.28,245.929c-40.685,0-73.786-33.1-73.786-73.785c0-40.686,33.1-73.785,73.786-73.785
	c40.685,0,73.785,33.099,73.785,73.785C415.064,212.828,381.965,245.929,341.28,245.929z M341.28,127.945
	c-24.371,0-44.199,19.828-44.199,44.198c0,24.37,19.827,44.197,44.199,44.197c24.37,0,44.197-19.826,44.197-44.197
	C385.477,147.773,365.65,127.945,341.28,127.945z"/>
<path style="fill:#989DA0;" d="M288.14,172.144c0-37.182,27.649-68.009,63.463-73.048c-44.666-6.284-84.11,28.531-84.11,73.048
	c0,44.556,39.479,79.325,84.11,73.048C315.789,240.153,288.14,209.324,288.14,172.144z"/>
<circle style="fill:#BABABA;" cx="341.276" cy="172.14" r="13.3"/>
<g>
</g>
<g>
</g>
<g>
</g>
<g>
</g>
<g>
</g>
<g>
</g>
<g>
</g>
<g>
</g>
<g>
</g>
<g>
</g>
<g>
</g>
<g>
</g>
<g>
</g>
<g>
</g>
<g>
</g>
</svg>
