<?xml version="1.0" encoding="iso-8859-1"?>
<!-- Generator: Adobe Illustrator 19.0.0, SVG Export Plug-In . SVG Version: 6.00 Build 0)  -->
<svg version="1.1" id="Capa_1" xmlns="http://www.w3.org/2000/svg" xmlns:xlink="http://www.w3.org/1999/xlink" x="0px" y="0px"
	 viewBox="0 0 512.002 512.002" style="enable-background:new 0 0 512.002 512.002;" xml:space="preserve">
<g transform="matrix(1.25 0 0 -1.25 0 45)">
	<path style="fill:#F5F8FA;" d="M364.09,35.999H45.512c-25.133,0-45.511-20.378-45.511-45.511V-328.09
		c0-25.133,20.378-45.511,45.511-45.511H364.09c25.133,0,45.511,20.378,45.511,45.511V-9.512
		C409.601,15.621,389.223,35.999,364.09,35.999z"/>
	<path style="fill:#E1E8ED;" d="M409.601-150.406v81.254c-7.246,4.448-15.769,7.017-24.895,7.017
		c-15.064,0-28.342-7.134-37.069-18.068c-9.147,8.499-21.287,13.801-34.747,13.801c-8.204,0-15.838-2.117-22.71-5.53
		c-8.43,16.703-25.566,28.285-45.556,28.285c-6.906,0-13.471-1.411-19.479-3.891c-5.461,15.485-20.071,26.647-37.41,26.647
		c-13.733,0-25.862-6.952-33.007-17.544c-7.156,3.812-15.201,6.167-23.882,6.167c-18.671,0-34.828-10.092-43.782-25.009
		C78.826-36.022,58.312-20.89,34.134-20.89c-12.809,0-24.626-4.232-34.133-11.373v-91.032c9.507-7.14,21.324-11.373,34.133-11.373
		c21.777,0,40.482,12.379,50.04,30.356c7.999-17.863,25.838-30.356,46.671-30.356c7.942,0,15.372,1.957,22.061,5.189
		c5.985-9.887,16.737-16.566,29.139-16.566c11.333,0,21.288,5.575,27.5,14.063c8.749-8.261,20.389-13.414,33.268-13.881
		c6.372-13.517,20.013-22.938,35.942-22.938c5.734,0,11.15,1.263,16.077,3.448c5.632-2.139,11.674-3.448,18.056-3.448
		c17.453,0,32.813,8.773,42.053,22.095c8.18-6.611,18.444-10.718,29.765-10.718C393.832-157.423,402.355-154.854,409.601-150.406z"
		/>
	<path style="fill:#CCD6DD;" d="M409.601-131.719c-9.598,12.065-24.396,19.807-41.005,19.807c-22.733,0-41.893-14.552-49.14-34.804
		c-2.15,0.376-4.312,0.671-6.565,0.671c-9.33,0-17.806-3.345-24.599-8.727c-7.498,5.439-16.634,8.727-26.601,8.727
		c-4.017,0-7.839-0.694-11.548-1.661c0.023,0.557,0.171,1.093,0.171,1.661c0,25.133-20.378,45.511-45.511,45.511
		c-13.824,0-26.067-6.303-34.406-16.031c-6.906,2.981-14.495,4.653-22.483,4.653c-2.048,0-3.982-0.387-5.973-0.603
		C130.038-83.524,101.56-63.09,68.268-63.09c-28.973,0-54.331-15.473-68.267-38.604v-154.504
		c5.207-7.295,12.523-11.691,22.756-11.691c15.189,0,336.93,28.444,345.839,28.444c16.605,0,31.407,15.235,41.005,33.685
		L409.601-131.719L409.601-131.719z"/>
	<path style="fill:#E1E8ED;" d="M409.601-300.589v104.288c-6.97,3.045-14.661,4.745-22.756,4.745
		c-24.178,0-44.692-15.132-52.929-36.386c-8.943,14.917-25.111,25.009-43.782,25.009c-8.681,0-16.725-2.355-23.882-6.167
		c-7.145,10.591-19.274,17.544-33.007,17.544c-17.339,0-31.949-11.162-37.41-26.647c-6.008,2.481-12.572,3.891-19.479,3.891
		c-19.991,0-37.126-11.583-45.556-28.285c-6.872,3.413-14.507,5.53-22.71,5.53c-13.46,0-25.6-5.302-34.747-13.801
		c-8.727,10.934-22.005,18.068-37.069,18.068c-14.53,0-27.533-6.511-36.273-16.765v-61.758c8.74-10.255,21.742-16.766,36.273-16.766
		c11.321,0,21.583,4.108,29.765,10.718c9.239-13.335,24.599-22.095,42.052-22.095c6.383,0,12.424,1.308,18.056,3.448
		c4.927-2.184,10.342-3.448,16.077-3.448c15.929,0,29.571,9.421,35.942,22.938c12.879,0.467,24.519,5.62,33.268,13.881
		c6.213-8.488,16.168-14.063,27.5-14.063c12.402,0,23.154,6.679,29.139,16.566c6.69-3.231,14.12-5.189,22.061-5.189
		c20.833,0,38.673,12.493,46.683,30.356c9.546-17.977,28.252-30.356,50.029-30.356C394.939-305.334,402.631-303.634,409.601-300.589
		z"/>
	<g>
		<path style="fill:#FE5011;" d="M227.556-358.207v291.807c0,0,0,22.756-22.756,22.756s-22.756-22.756-22.756-22.756v-291.807
			H227.556z"/>
		<path style="fill:#FE5011;" d="M0.001-237.741v-23.553c44.255,20.991,142.55,76.797,204.8,183.515l-22.756,11.378
			C125.019-164.159,40.23-216.908,0.001-237.741z"/>
		<path style="fill:#FE5011;" d="M409.601-316.712H0.001v45.511h409.6V-316.712z"/>
		<path style="fill:#FE5011;" d="M409.601-237.742C369.37-216.91,284.575-164.16,227.556-66.401l-22.756-11.378
			c62.258-106.717,160.547-162.522,204.8-183.514V-237.742z"/>
		<path style="fill:#FE5011;" d="M113.779-282.579h22.756v125.156h-22.756V-282.579z"/>
		<path style="fill:#FE5011;" d="M295.823-282.579h-22.756v125.156h22.756V-282.579z"/>
		<path style="fill:#FE5011;" d="M45.512-282.579h22.756v68.267H45.512V-282.579z"/>
		<path style="fill:#FE5011;" d="M364.09-293.956h-22.756v79.644h22.756V-293.956z"/>
	</g>
	<path style="fill:#F5F8FA;" d="M0.085-330.762c0.032-0.546,0.074-1.09,0.124-1.631c0.015-0.159,0.026-0.32,0.043-0.478
		c0.068-0.653,0.151-1.3,0.247-1.944c0.032-0.216,0.069-0.429,0.105-0.644c0.074-0.45,0.154-0.899,0.24-1.344
		c0.049-0.249,0.096-0.499,0.149-0.747c0.115-0.545,0.24-1.085,0.375-1.622c0.078-0.31,0.162-0.616,0.247-0.923
		c0.096-0.351,0.194-0.701,0.298-1.048c0.097-0.323,0.197-0.645,0.3-0.965c0.09-0.276,0.184-0.55,0.279-0.823
		c0.224-0.648,0.462-1.291,0.714-1.926c0.067-0.168,0.131-0.338,0.199-0.504c0.159-0.387,0.326-0.771,0.496-1.153
		c0.071-0.161,0.145-0.321,0.218-0.481c0.585-1.277,1.226-2.522,1.922-3.733c0.049-0.085,0.097-0.17,0.146-0.254
		c0.242-0.414,0.488-0.825,0.742-1.23l0,0c1.192,0.04,2.388,0.105,3.592,0.228c13.21,1.354,24.645,7.521,33.178,16.396
		c3.834-0.922,7.839-1.377,11.992-0.955c7.794,0.796,14.689,4.119,20.116,8.977c7.668-15.86,24.531-26.1,43.077-24.212
		c12.777,1.308,23.552,8.169,30.504,17.841c5.189-1.889,10.809-2.788,16.668-2.196c11.992,1.229,21.959,8.021,27.944,17.465
		c7.293-2.981,15.303-4.483,23.7-3.629c9.487,0.965,18.071,4.546,25.122,9.947c7.067-15.967,23.04-27.114,41.623-27.114
		c25.133,0,45.511,20.378,45.511,45.511s-20.378,45.511-45.511,45.511c-9.276,0-17.9-2.783-25.096-7.549
		c-7.56,20.913-28.59,34.828-51.71,32.474c-21.425-2.184-38.093-17.749-42.985-37.524c-2.06,0.136-4.13,0.205-6.246-0.012
		c-8.806-0.888-16.475-4.858-22.357-10.581c-7.589,4.403-16.52,6.622-25.919,5.666c-3.789-0.387-7.327-1.4-10.718-2.674
		c-0.034,0.535,0.045,1.047-0.012,1.581c-2.412,23.7-23.575,40.948-47.275,38.536c-13.028-1.331-23.962-8.442-30.902-18.42
		c-6.667,2.1-13.84,2.951-21.225,2.261v-83.404c0-0.699,0.022-1.393,0.053-2.084C0.063-330.37,0.074-330.566,0.085-330.762z"/>
	<path style="fill:#CCD6DD;" d="M375.467-233.756c-33.292,0-61.77-20.435-73.671-49.425c-1.991,0.216-3.925,0.603-5.973,0.603
		c-7.987,0-15.576-1.672-22.483-4.653c-8.34,9.728-20.582,16.031-34.406,16.031c-25.133,0-45.511-20.378-45.511-45.511
		c0-0.569,0.148-1.103,0.171-1.661c-3.71,0.967-7.532,1.661-11.548,1.661c-9.967,0-19.103-3.288-26.601-8.727
		c-6.792,5.382-15.269,8.727-24.599,8.727c-2.253,0-4.415-0.296-6.565-0.671c-7.247,20.252-26.408,34.804-49.14,34.804
		c-22.607,0-41.688-14.405-49.038-34.475c-1.126,0.091-2.196,0.341-3.345,0.341c-8.292,0-16.059-2.23-22.756-6.105v-5.273
		c0-25.133,20.378-45.511,45.511-45.511h318.578c25.133,0,45.511,20.378,45.511,45.511v86.664
		C399.255-236.51,387.684-233.756,375.467-233.756z"/>
</g>
<g>
</g>
<g>
</g>
<g>
</g>
<g>
</g>
<g>
</g>
<g>
</g>
<g>
</g>
<g>
</g>
<g>
</g>
<g>
</g>
<g>
</g>
<g>
</g>
<g>
</g>
<g>
</g>
<g>
</g>
</svg>
