<?xml version="1.0" encoding="iso-8859-1"?>
<!-- Generator: Adobe Illustrator 19.0.0, SVG Export Plug-In . SVG Version: 6.00 Build 0)  -->
<svg version="1.1" id="Capa_1" xmlns="http://www.w3.org/2000/svg" xmlns:xlink="http://www.w3.org/1999/xlink" x="0px" y="0px"
	 viewBox="0 0 512 512" style="enable-background:new 0 0 512 512;" xml:space="preserve">
<path style="fill:#4F1A0C;" d="M408.271,245.429l54.042,12.544c8.061,1.87,16.124-3.149,17.996-11.216
	c1.872-8.067-3.148-16.124-11.216-17.996l-24.838-5.766c4.644-4.84,5.617-12.376,1.895-18.32
	c-4.393-7.019-13.645-9.148-20.665-4.755l-26.525,16.603l-122.968,62.429V235.69l77.394-56.763
	c6.679-4.897,8.121-14.282,3.224-20.959c-4.898-6.678-14.281-8.118-20.959-3.224l-59.658,43.755v-55.054
	c0.361-0.199,0.721-0.402,1.07-0.635l63.574-42.377h35.737c8.281,0,14.995-6.714,14.995-14.995s-6.714-14.995-14.995-14.995h-25.282
	V54.559c0-8.281-6.714-14.995-14.995-14.995c-8.281,0-14.995,6.714-14.995,14.995v22.856l-45.11,30.069V14.995
	C275.992,6.714,269.278,0,260.997,0c-8.281,0-14.995,6.714-14.995,14.995v73.899l-6.063-4.062
	c-6.878-4.609-16.194-2.768-20.803,4.112c-4.609,6.881-2.769,16.194,4.112,20.803l22.755,15.243v72.714l-32.238-8.792
	l-75.349-99.787c-4.99-6.608-14.391-7.92-21.002-2.931c-6.609,4.99-7.921,14.393-2.931,21.002l39.479,52.283h-27.512
	c-8.281,0-14.995,6.714-14.995,14.995c0,8.281,6.714,14.995,14.995,14.995h50.157l16.309,21.598c1.999,2.647,4.82,4.558,8.02,5.431
	l45.067,12.292v49.6l-131.137-70.486c-2.182-1.173-4.621-1.786-7.099-1.786H46.293c-8.281,0-14.995,6.714-14.995,14.995
	s6.714,14.995,14.995,14.995h57.701l142.01,76.329v34.326l-84.119-39.587c-1.437-0.677-2.975-1.121-4.553-1.315l-68.894-8.479
	c-8.217-1.006-15.701,4.831-16.714,13.051c-1.012,8.219,4.831,15.702,13.051,16.714l30.852,3.798l-4.366,3.381
	c-6.549,5.07-7.747,14.488-2.677,21.036c2.955,3.817,7.386,5.816,11.867,5.816c3.206,0,6.437-1.024,9.169-3.14l26.431-20.463
	l89.953,42.332v66.986c0,8.281,6.714,14.995,14.995,14.995c8.281,0,14.995-6.714,14.995-14.995v-54.755L396.7,335.333l66.512-8.186
	c8.22-1.012,14.062-8.495,13.051-16.714c-1.013-8.219-8.497-14.058-16.714-13.051l-68.894,8.479
	c-1.578,0.194-3.115,0.639-4.553,1.315L275.993,358.99v-46.405L408.271,245.429z"/>
<g>
	<path style="fill:#802812;" d="M260.998,0c-8.281,0-14.995,6.714-14.995,14.995v73.899l-6.063-4.062
		c-6.878-4.609-16.194-2.768-20.803,4.112c-4.609,6.881-2.769,16.194,4.112,20.803l22.755,15.243v72.714l-32.238-8.792
		l-75.349-99.787c-4.99-6.608-14.391-7.92-21.002-2.931c-6.609,4.99-7.921,14.393-2.931,21.002l39.479,52.283H126.45
		c-8.281,0-14.995,6.714-14.995,14.995c0,8.281,6.714,14.995,14.995,14.995h50.157l16.309,21.598c1.999,2.647,4.82,4.558,8.02,5.431
		l45.067,12.292v49.6l-131.137-70.486c-2.182-1.173-4.621-1.786-7.099-1.786H46.293c-8.281,0-14.995,6.714-14.995,14.995
		s6.714,14.995,14.995,14.995h57.701l142.01,76.329v34.326l-84.119-39.587c-1.437-0.677-2.975-1.121-4.553-1.315l-68.894-8.479
		c-8.217-1.006-15.701,4.831-16.714,13.051c-1.012,8.219,4.831,15.702,13.051,16.714l30.852,3.798l-4.366,3.381
		c-6.549,5.07-7.747,14.488-2.677,21.036c2.955,3.817,7.386,5.816,11.867,5.816c3.206,0,6.437-1.024,9.169-3.14l26.431-20.463
		l89.953,42.332v66.986c0,8.281,6.714,14.995,14.995,14.995L260.998,0L260.998,0z"/>
	<path style="fill:#802812;" d="M304.81,494.654l-11.842-74.586c-1.156-7.282-7.435-12.643-14.809-12.643h-34.322
		c-7.373,0-13.653,5.361-14.809,12.642l-11.843,74.586c-0.688,4.333,0.557,8.751,3.405,12.088c2.85,3.337,7.017,5.259,11.404,5.259
		h58.005c4.387,0,8.555-1.922,11.404-5.259C304.254,503.404,305.498,498.987,304.81,494.654z"/>
</g>
<path style="fill:#C4431F;" d="M260.998,407.424h-17.16c-7.373,0-13.653,5.361-14.809,12.642l-11.843,74.586
	c-0.688,4.333,0.557,8.751,3.405,12.088c2.85,3.337,7.017,5.259,11.404,5.259h29.002L260.998,407.424L260.998,407.424z"/>
<path style="fill:#808F1F;" d="M322.944,482.01H199.053c-8.281,0-14.995,6.714-14.995,14.995c0,8.281,6.714,14.995,14.995,14.995
	h123.892c8.281,0,14.995-6.714,14.995-14.995C337.939,488.723,331.226,482.01,322.944,482.01z"/>
<path style="fill:#BFA230;" d="M260.998,482.01h-61.946c-8.281,0-14.995,6.714-14.995,14.995c0,8.281,6.714,14.995,14.995,14.995
	h61.946V482.01z"/>
<g>
</g>
<g>
</g>
<g>
</g>
<g>
</g>
<g>
</g>
<g>
</g>
<g>
</g>
<g>
</g>
<g>
</g>
<g>
</g>
<g>
</g>
<g>
</g>
<g>
</g>
<g>
</g>
<g>
</g>
</svg>
