<?xml version="1.0" encoding="iso-8859-1"?>
<!-- Generator: Adobe Illustrator 19.0.0, SVG Export Plug-In . SVG Version: 6.00 Build 0)  -->
<svg version="1.1" id="Capa_1" xmlns="http://www.w3.org/2000/svg" xmlns:xlink="http://www.w3.org/1999/xlink" x="0px" y="0px"
	 viewBox="0 0 512 512" style="enable-background:new 0 0 512 512;" xml:space="preserve">
<path style="fill:#60DD4E;" d="M367,401H0V256c0-79.953,65.047-145,145-145h367v145C512,335.953,446.953,401,367,401z"/>
<path style="fill:#00C800;" d="M256,111v290h111c79.953,0,145-65.047,145-145V111H256z"/>
<g>
	<path style="fill:#FFDB2D;" d="M179.876,292.682v33.891H79V185.028h99.082v33.891h-60.207v19.936h51.435v31.499h-51.435v22.329
		h62.001V292.682z"/>
	<path style="fill:#FFDB2D;" d="M188.049,254.604c0-8.637,1.526-17.145,4.585-25.518c3.056-8.374,7.541-15.881,13.457-22.528
		c5.912-6.644,13.089-12.027,21.531-16.147c8.438-4.119,18.042-6.18,28.807-6.18c12.625,0,23.656,2.825,33.094,8.473
		c9.435,5.651,16.413,13.127,20.933,22.428l-29.705,21.132c-1.196-3.455-2.76-6.312-4.685-8.573
		c-1.928-2.258-4.022-4.053-6.28-5.382c-2.261-1.328-4.654-2.258-7.177-2.792c-2.527-0.53-4.854-0.797-6.978-0.797
		c-4.919,0-9.14,1.097-12.66,3.289c-3.523,2.193-6.448,5.053-8.772,8.573c-2.327,3.523-4.022,7.51-5.084,11.962
		c-1.066,4.454-1.595,8.871-1.595,13.257c0,4.919,0.629,9.638,1.894,14.155c1.262,4.52,3.121,8.507,5.582,11.962
		c2.458,3.458,5.448,6.214,8.971,8.273c3.52,2.062,7.541,3.09,12.061,3.09c2.258,0,4.585-0.299,6.978-0.897
		c2.392-0.599,4.685-1.595,6.878-2.99c2.193-1.396,4.187-3.19,5.981-5.383c1.794-2.193,3.221-4.884,4.286-8.074l31.699,18.939
		c-1.994,5.184-5.019,9.837-9.071,13.955c-4.056,4.12-8.672,7.575-13.855,10.366c-5.184,2.792-10.7,4.919-16.547,6.38
		c-5.85,1.461-11.563,2.193-17.145,2.193c-9.837,0-18.874-2.094-27.113-6.28c-8.243-4.187-15.32-9.734-21.232-16.647
		c-5.915-6.909-10.535-14.753-13.855-23.525C189.71,272.547,188.049,263.644,188.049,254.604z"/>
</g>
<g>
	<path style="fill:#FF9A00;" d="M384.819,327.77c-10.102,0-19.307-2.059-27.611-6.18c-8.308-4.118-15.419-9.535-21.332-16.248
		c-5.915-6.71-10.5-14.385-13.756-23.027c-3.258-8.637-4.884-17.543-4.884-26.714c0-9.301,1.694-18.272,5.084-26.914
		c3.389-8.637,8.139-16.248,14.254-22.826c6.112-6.579,13.323-11.828,21.631-15.75c8.304-3.918,17.444-5.881,27.412-5.881
		c10.099,0,19.303,2.062,27.611,6.18c8.305,4.12,15.416,9.569,21.331,16.347c5.913,6.778,10.466,14.488,13.656,23.126
		c3.19,8.641,4.785,17.478,4.785,26.514c0,9.305-1.694,18.242-5.083,26.814s-8.074,16.148-14.055,22.727
		c-5.981,6.579-13.158,11.862-21.531,15.85C403.958,325.776,394.787,327.77,384.819,327.77z M356.709,256
		c0,4.784,0.564,9.404,1.694,13.855c1.128,4.454,2.891,8.408,5.283,11.862c2.392,3.458,5.383,6.249,8.971,8.374
		c3.588,2.127,7.775,3.189,12.559,3.189c4.916,0,9.171-1.096,12.759-3.289c3.589-2.193,6.51-5.049,8.772-8.572
		c2.258-3.52,3.953-7.541,5.084-12.062c1.128-4.517,1.695-9.102,1.695-13.756c0-4.785-0.598-9.401-1.795-13.855
		c-1.196-4.451-2.959-8.373-5.283-11.763c-2.327-3.388-5.283-6.111-8.871-8.173c-3.589-2.06-7.775-3.091-12.56-3.091
		c-4.919,0-9.14,1.066-12.66,3.19c-3.523,2.128-6.448,4.953-8.772,8.473c-2.327,3.523-4.056,7.51-5.184,11.962
		C357.273,246.798,356.709,251.349,356.709,256z"/>
	<path style="fill:#FF9A00;" d="M256,218.73c2.026,0.028,4.226,0.286,6.61,0.786c2.523,0.533,4.915,1.464,7.177,2.792
		c2.258,1.33,4.352,3.124,6.28,5.382c1.925,2.261,3.489,5.118,4.685,8.573l29.705-21.132c-4.52-9.301-11.498-16.777-20.933-22.428
		c-9.438-5.648-20.469-8.473-33.094-8.473c-0.145,0-0.285,0.01-0.43,0.01L256,218.73L256,218.73z"/>
	<path style="fill:#FF9A00;" d="M280.154,275.936c-1.065,3.19-2.492,5.881-4.286,8.074s-3.788,3.987-5.981,5.383
		c-2.193,1.395-4.486,2.392-6.878,2.99s-4.719,0.897-6.978,0.897c-0.011,0-0.021-0.001-0.031-0.001v34.478
		c5.339-0.064,10.796-0.786,16.379-2.181c5.847-1.461,11.363-3.588,16.547-6.38c5.183-2.791,9.8-6.246,13.855-10.366
		c4.052-4.119,7.077-8.772,9.071-13.955L280.154,275.936z"/>
</g>
<g>
</g>
<g>
</g>
<g>
</g>
<g>
</g>
<g>
</g>
<g>
</g>
<g>
</g>
<g>
</g>
<g>
</g>
<g>
</g>
<g>
</g>
<g>
</g>
<g>
</g>
<g>
</g>
<g>
</g>
</svg>
