<?xml version="1.0" encoding="iso-8859-1"?>
<!-- Generator: Adobe Illustrator 19.0.0, SVG Export Plug-In . SVG Version: 6.00 Build 0)  -->
<svg version="1.1" id="Capa_1" xmlns="http://www.w3.org/2000/svg" xmlns:xlink="http://www.w3.org/1999/xlink" x="0px" y="0px"
	 viewBox="0 0 384 384" style="enable-background:new 0 0 384 384;" xml:space="preserve">
<circle style="fill:#EA8953;" cx="192" cy="192" r="192"/>
<path style="opacity:0.1;enable-background:new    ;" d="M300.32,115.87c-0.96-0.96-2.28-1.52-3.76-1.52H87.44
	c-3,0-5.44,2.44-5.44,5.48v144.36c0,1.56,0.68,3,1.76,3.96l0.12,0.12l115.508,115.544c100.154-3.795,180.63-84.27,184.426-184.424
	L300.4,115.95L300.32,115.87z"/>
<path style="fill:#64798A;" d="M296.543,114.352H87.458c-3.015,0-5.458,2.444-5.458,5.458v144.382c0,3.014,2.443,5.457,5.458,5.457
	h209.085c3.014,0,5.457-2.443,5.457-5.457V119.81C302,116.795,299.557,114.352,296.543,114.352z"/>
<rect x="128.888" y="126.356" style="fill:#3A556A;" width="161.12" height="131.296"/>
<g>
	<polygon style="fill:#EBF0F3;" points="258,137.955 258,138.752 261.602,138.752 261.602,142.354 262.398,142.354 262.398,137.955 
			"/>
	<polygon style="fill:#EBF0F3;" points="140.465,142.354 141.262,142.354 141.262,138.752 144.863,138.752 144.863,137.955 
		140.465,137.955 	"/>
	<polygon style="fill:#EBF0F3;" points="261.602,245.252 258,245.252 258,246.049 262.398,246.049 262.398,241.65 261.602,241.65 	
		"/>
	<polygon style="fill:#EBF0F3;" points="141.262,241.65 140.465,241.65 140.465,246.049 144.863,246.049 144.863,245.252 
		141.262,245.252 	"/>
</g>
<g>
	<rect x="82" y="256.72" style="fill:#3A556A;" width="46.86" height="0.928"/>
	<rect x="82" y="126.352" style="fill:#3A556A;" width="46.86" height="0.928"/>
	<path style="fill:#3A556A;" d="M109.947,144.375h-12.41c-0.583,0-1.055-0.472-1.055-1.055v-4.333c0-0.583,0.472-1.055,1.055-1.055
		h12.41c0.583,0,1.055,0.472,1.055,1.055v4.333C111.002,143.903,110.53,144.375,109.947,144.375z"/>
	<path style="fill:#3A556A;" d="M109.947,154.35h-12.41c-0.583,0-1.055-0.472-1.055-1.055v-4.333c0-0.583,0.472-1.055,1.055-1.055
		h12.41c0.583,0,1.055,0.472,1.055,1.055v4.333C111.002,153.878,110.53,154.35,109.947,154.35z"/>
	<path style="fill:#3A556A;" d="M109.947,164.326h-12.41c-0.583,0-1.055-0.472-1.055-1.055v-4.333c0-0.583,0.472-1.055,1.055-1.055
		h12.41c0.583,0,1.055,0.472,1.055,1.055v4.333C111.002,163.854,110.53,164.326,109.947,164.326z"/>
	<path style="fill:#3A556A;" d="M109.947,174.301h-12.41c-0.583,0-1.055-0.472-1.055-1.055v-4.333c0-0.582,0.472-1.055,1.055-1.055
		h12.41c0.583,0,1.055,0.472,1.055,1.055v4.333C111.002,173.829,110.53,174.301,109.947,174.301z"/>
	<path style="fill:#3A556A;" d="M109.947,216.142h-12.41c-0.583,0-1.055-0.472-1.055-1.055v-4.333c0-0.582,0.472-1.055,1.055-1.055
		h12.41c0.583,0,1.055,0.472,1.055,1.055v4.333C111.002,215.67,110.53,216.142,109.947,216.142z"/>
	<path style="fill:#3A556A;" d="M109.947,226.117h-12.41c-0.583,0-1.055-0.472-1.055-1.055v-4.333c0-0.582,0.472-1.055,1.055-1.055
		h12.41c0.583,0,1.055,0.472,1.055,1.055v4.333C111.002,225.645,110.53,226.117,109.947,226.117z"/>
	<path style="fill:#3A556A;" d="M109.947,236.092h-12.41c-0.583,0-1.055-0.472-1.055-1.055v-4.333c0-0.583,0.472-1.055,1.055-1.055
		h12.41c0.583,0,1.055,0.472,1.055,1.055v4.333C111.002,235.62,110.53,236.092,109.947,236.092z"/>
	<path style="fill:#3A556A;" d="M109.947,246.068h-12.41c-0.583,0-1.055-0.472-1.055-1.055v-4.333c0-0.583,0.472-1.055,1.055-1.055
		h12.41c0.583,0,1.055,0.472,1.055,1.055v4.333C111.002,245.596,110.53,246.068,109.947,246.068z"/>
	<circle style="fill:#3A556A;" cx="103.74" cy="192" r="13.992"/>
</g>
<g>
	<circle style="fill:#2F4859;" cx="103.74" cy="192" r="6.16"/>
	<rect x="100.6" y="150.864" style="fill:#2F4859;" width="6.288" height="0.532"/>
	<rect x="100.6" y="232.6" style="fill:#2F4859;" width="6.288" height="0.532"/>
	<circle style="fill:#2F4859;" cx="103.74" cy="161.12" r="0.532"/>
	<circle style="fill:#2F4859;" cx="103.74" cy="222.88" r="0.532"/>
</g>
<rect x="152.4" y="222.96" transform="matrix(-0.7071 -0.7071 0.7071 -0.7071 114.2816 495.6848)" style="fill:#324C5E;" width="14.8" height="2.428"/>
<path style="fill:#2F4859;" d="M150.802,233.197c-0.244-0.244-0.642-0.245-0.886,0l-1.899,1.899c-0.244,0.244-0.244,0.642,0,0.886
	c0.244,0.244,0.642,0.244,0.886,0l1.899-1.899C151.047,233.839,151.047,233.442,150.802,233.197z"/>
<g>
	<path style="fill:#64798A;" d="M164.184,230.281l-10.465-10.465c0,0-6.727,11.86-4.061,14.526
		C152.324,237.008,164.184,230.281,164.184,230.281z"/>
	<path style="fill:#64798A;" d="M171.483,221.133l59.876-60.222l-8.27-8.27l-60.232,59.882c-0.95,0.947-1.983,1.806-3.085,2.57
		l-4.335,3.004l10.465,10.465l3.002-4.334C169.67,223.123,170.534,222.087,171.483,221.133z"/>
</g>
<path style="fill:#2F4859;" d="M235.194,148.807c-1.296-1.296-3.396-1.296-4.693,0l-3.856,3.856
	c-1.296,1.296,2.171-0.07,3.467,1.226c1.296,1.296-0.07,4.763,1.226,3.467l3.856-3.856
	C236.49,152.203,236.49,150.102,235.194,148.807z"/>
<path style="fill:#324C5E;" d="M233.916,158.345c0.378-0.38,0.376-0.992-0.002-1.371l-6.888-6.887
	c-0.378-0.378-0.992-0.38-1.37-0.001l-2.566,2.557l8.27,8.27L233.916,158.345z"/>
<rect x="176.232" y="203.812" transform="matrix(-0.7071 -0.7071 0.7071 -0.7071 155.8244 478.5245)" style="fill:#3A556A;" width="1.572" height="6.356"/>
<rect x="171.749" y="208.285" transform="matrix(-0.7072 -0.707 0.707 -0.7072 145.0565 482.996)" style="fill:#2F4859;" width="1.572" height="6.356"/>
<g>
</g>
<g>
</g>
<g>
</g>
<g>
</g>
<g>
</g>
<g>
</g>
<g>
</g>
<g>
</g>
<g>
</g>
<g>
</g>
<g>
</g>
<g>
</g>
<g>
</g>
<g>
</g>
<g>
</g>
</svg>
