<?xml version="1.0" encoding="iso-8859-1"?>
<!-- Generator: Adobe Illustrator 19.0.0, SVG Export Plug-In . SVG Version: 6.00 Build 0)  -->
<svg version="1.1" id="Capa_1" xmlns="http://www.w3.org/2000/svg" xmlns:xlink="http://www.w3.org/1999/xlink" x="0px" y="0px"
	 viewBox="0 0 512 512" style="enable-background:new 0 0 512 512;" xml:space="preserve">
<circle style="fill:#F44E72;" cx="256" cy="256" r="256"/>
<path style="fill:#FFCF4B;" d="M447.522,425.868c-1.097,1.233-2.215,2.466-3.333,3.678c-3.877,4.211-7.899,8.297-12.069,12.236
	c-11.776,11.17-24.607,21.222-38.327,29.999c-43.321-32.308-91.69-73.31-128.146-108.001c-5.559-5.298-10.846-10.449-15.788-15.391
	c-16.76-16.76-32.026-33.604-45.411-49.873c-46.717-56.769-70.583-106.6-55.359-121.825c15.214-15.224,65.024,8.62,121.772,55.317
	c16.29,13.396,33.144,28.672,49.925,45.453c4.932,4.932,10.062,10.198,15.339,15.747
	C372.039,330.929,414.713,381.418,447.522,425.868z"/>
<path style="fill:#EFAA3A;" d="M412.884,458.302c-6.144,4.775-12.507,9.279-19.09,13.479c0,0-0.01,0-0.01,0.01
	c-49.925-37.24-106.548-86.026-143.924-123.402c-75.243-75.243-120.362-152.116-100.77-171.698
	c-7.043,7.032,48.253,73.728,123.496,148.971C310.766,363.843,366.417,416.558,412.884,458.302z"/>
<path style="fill:#E8E8E8;" d="M174.11,170.104c-3.072,12.072-10.417,22.462-19.838,29.191
	c-39.059,27.898-84.339-24.874-86.005-59.075c-0.281-5.48-2.002-11.097-4.704-16.6c-0.006-0.008-0.006-0.008-0.006-0.008
	c-0.152-0.301-0.303-0.603-0.453-0.904c-0.536-1.038-1.101-2.079-1.706-3.105c-1.934-3.353-4.203-6.672-6.696-9.894
	c-4.056-5.255-8.689-10.281-13.421-14.905C32.375,86.097,39.844,71.082,52.15,73c59.577,9.284,93.447,28.194,110.145,48.978
	l0.013,0.017C175.263,138.111,177.873,155.363,174.11,170.104z"/>
<path style="fill:#D6D6D6;" d="M174.11,170.104c-3.072,12.072-10.417,22.462-19.838,29.191
	c-39.059,27.898-84.339-24.874-86.005-59.075c-0.281-5.48-2.002-11.097-4.704-16.6C73.264,140.732,114.873,205.186,174.11,170.104z"
	/>
<path style="fill:#51B0E0;" d="M162.286,121.976c-19.185-23.888-61.073-45.302-138.61-52.468c-4.231-0.391-6.359,4.991-2.988,7.578
	c9.928,7.615,23.921,19.496,34.169,32.834c0.695,0.905,1.372,1.816,2.029,2.732c0.111,0.155,0.222,0.309,0.331,0.464
	c0.673,0.95,1.327,1.906,1.955,2.867c0.067,0.102,0.133,0.204,0.199,0.306c0.624,0.963,1.221,1.933,1.793,2.906
	c0.078,0.134,0.157,0.267,0.234,0.401c0.592,1.024,1.16,2.051,1.689,3.082c0.005,0.009,0.01,0.019,0.016,0.029l0.001,0.001
	c2.966,5.801,4.867,11.723,5.164,17.511l0,0c7.202,3.194,12.979,8.966,16.058,16.218c0.828,1.949,1.616,3.958,2.352,6.025
	c0,0,11.24-23.197-3.535-40.722c0,0,36.092,9.614,51.75,39.419c0,0,0.062-33.751-37.353-57.016
	C97.539,104.144,130.389,96.523,162.286,121.976z"/>
<path style="fill:#535B70;" d="M191.777,169.02l-50.36,50.361c-4.362,4.362-11.436,4.362-15.799,0l-1.582-1.582
	c-4.362-4.362-4.362-11.436,0-15.799l50.36-50.36c4.362-4.362,11.436-4.362,15.799,0l1.582,1.582
	C196.14,157.584,196.14,164.657,191.777,169.02z"/>
<path style="fill:#42495B;" d="M138.844,204.572L138.844,204.572c-4.799-4.799-4.799-12.582,0-17.381l-14.016,14.016
	c-4.799,4.799-4.799,12.582,0,17.381l0,0c4.799,4.799,12.582,4.799,17.381,0l14.016-14.016
	C151.426,209.372,143.643,209.372,138.844,204.572z"/>
<path style="fill:#535B70;" d="M209.158,186.4l-50.361,50.36c-4.362,4.362-11.436,4.362-15.799,0l-1.582-1.582
	c-4.362-4.362-4.362-11.436,0-15.799l50.36-50.361c4.362-4.362,11.436-4.362,15.799,0l1.582,1.582
	C213.521,174.965,213.521,182.038,209.158,186.4z"/>
<path style="fill:#42495B;" d="M156.225,221.953L156.225,221.953c-4.799-4.799-4.799-12.582,0-17.381l-14.016,14.016
	c-4.799,4.799-4.799,12.582,0,17.381l0,0c4.799,4.799,12.582,4.799,17.381,0l14.016-14.016
	C168.806,226.753,161.024,226.753,156.225,221.953z"/>
<path style="fill:#51B0E0;" d="M451.786,177.37v0.01l-115.66,115.827l-70.478,70.572L143.562,486.044
	c-13.793-6.75-26.896-14.712-39.163-23.74c0,0-0.01,0-0.01-0.01c-7.231-5.319-14.179-11.013-20.793-17.053
	c-4.483-4.086-8.808-8.317-12.988-12.706l133.841-134.019l66.414-66.508l117.624-117.791l0.031,0.021l32.883,24.137l30.365,38.964
	L451.786,177.37z"/>
<path style="fill:#42A3CC;" d="M451.786,177.37L143.551,486.033c-8.359-4.086-16.457-8.62-24.273-13.563l313.553-314.013
	L451.786,177.37z"/>
<path style="fill:#6EC6EA;" d="M407.451,133.129L90.073,450.946c-2.194-1.86-4.357-3.762-6.478-5.705
	c-4.483-4.086-8.808-8.317-12.988-12.706l317.879-318.318l0.031,0.021L407.451,133.129z"/>
<polygon style="fill:#E8E8E8;" points="481.442,84.348 451.792,177.378 388.482,114.215 "/>
<polygon style="fill:#D6D6D6;" points="451.792,177.378 481.442,84.348 427.895,153.537 "/>
<path style="fill:#535B70;" d="M490.73,75.038L490.73,75.038c3,2.993,3.005,7.85,0.013,10.849l-14.707,14.741l-10.862-10.837
	l14.707-14.741C482.873,72.051,487.731,72.046,490.73,75.038z"/>
<g>
</g>
<g>
</g>
<g>
</g>
<g>
</g>
<g>
</g>
<g>
</g>
<g>
</g>
<g>
</g>
<g>
</g>
<g>
</g>
<g>
</g>
<g>
</g>
<g>
</g>
<g>
</g>
<g>
</g>
</svg>
