<?xml version="1.0" encoding="iso-8859-1"?>
<!-- Generator: Adobe Illustrator 19.0.0, SVG Export Plug-In . SVG Version: 6.00 Build 0)  -->
<svg version="1.1" id="Capa_1" xmlns="http://www.w3.org/2000/svg" xmlns:xlink="http://www.w3.org/1999/xlink" x="0px" y="0px"
	 viewBox="0 0 491.52 491.52" style="enable-background:new 0 0 491.52 491.52;" xml:space="preserve">
<circle style="fill:#45B39C;" cx="245.76" cy="245.76" r="245.76"/>
<path style="fill:#64798A;" d="M235.043,356.468h-15.367v-60.897c0-12.517,7.899-23.829,19.648-28.146l130.042-47.785
	c1.091-0.402,1.826-1.455,1.826-2.617v-54.898c0-1.537-1.251-2.787-2.791-2.787h-86.823v-15.359h86.823
	c10.015,0,18.158,8.139,18.158,18.146v54.898c0,7.57-4.777,14.414-11.885,17.032l-130.048,47.785
	c-5.732,2.107-9.584,7.625-9.584,13.732V356.468z"/>
<path style="fill:#2F4859;" d="M242.614,311.84h-29.526c-2.136,0-3.867,1.731-3.867,3.865v66.991c0,2.134,1.731,3.864,3.867,3.864
	h29.526c2.136,0,3.867-1.73,3.867-3.864v-66.991C246.48,313.571,244.75,311.84,242.614,311.84z"/>
<path style="fill:#EBF0F3;" d="M104.96,143.978v43.708c0,5.885,4.941,10.656,11.036,10.656h215.412
	c6.092,0,11.033-4.771,11.033-10.656v-43.708H104.96z"/>
<path style="fill:#D15241;" d="M331.398,110.08H115.986c-6.063,0-11.006,4.762-11.006,10.649v19.097
	c-0.008,0.005-0.012,0.011-0.02,0.016v15.219c1.383,0.877,3.007,1.404,4.759,1.404c1.935,0,3.719-0.613,5.197-1.689
	c0.05,6.041,4.839,10.853,10.852,10.853c5.401,0,9.936-3.942,10.749-9.165h0.154c2.853,0,5.349-1.331,6.928-3.43
	c1.886,3.174,5.401,5.325,9.374,5.325c1.988,0,3.821-0.564,5.453-1.485c0.915,3.942,4.431,6.81,8.66,6.81
	c4.381,0,8.051-3.124,8.764-7.322c1.63-0.102,3.107-0.666,4.329-1.587c0.052,6.041,4.893,10.853,10.904,10.853
	c5.401,0,9.884-3.942,10.7-9.165h0.154c2.851,0,5.451-1.382,6.979-3.481c1.886,3.226,5.351,5.376,9.324,5.376
	c1.988,0,3.873-0.564,5.503-1.485c0.918,3.942,4.433,6.81,8.659,6.81c1.274,0,2.548-0.256,3.62-0.82
	c1.935,1.69,4.431,2.765,7.235,2.765c5.401,0,9.933-3.942,10.749-9.165h0.154c2.851,0,5.349-1.331,6.928-3.43
	c1.883,3.174,5.401,5.325,9.374,5.325c1.988,0,3.873-0.564,5.45-1.485c0.918,3.942,4.433,6.81,8.663,6.81
	c4.381,0,8.05-3.124,8.764-7.322c1.63-0.102,3.107-0.666,4.331-1.587c0.05,6.041,4.891,10.853,10.901,10.853
	c5.401,0,9.884-3.942,10.7-9.165h0.152c2.854,0,5.401-1.331,6.981-3.43c1.886,3.174,5.348,5.325,9.324,5.325
	c2.542,0,4.856-0.906,6.712-2.367V120.61C342.374,114.779,337.47,110.08,331.398,110.08z"/>
<path style="fill:#E56353;" d="M331.398,104.96H115.986c-6.063,0-11.006,4.762-11.006,10.649v19.097
	c-0.008,0.005-0.012,0.011-0.02,0.016v15.219c1.383,0.877,3.007,1.404,4.759,1.404c1.935,0,3.719-0.614,5.197-1.689
	c0.05,6.041,4.839,10.853,10.852,10.853c5.401,0,9.936-3.942,10.749-9.164h0.154c2.853,0,5.349-1.331,6.928-3.43
	c1.886,3.174,5.401,5.325,9.374,5.325c1.988,0,3.821-0.564,5.453-1.485c0.915,3.942,4.431,6.81,8.66,6.81
	c4.381,0,8.051-3.124,8.764-7.322c1.63-0.103,3.107-0.666,4.329-1.587c0.052,6.041,4.893,10.853,10.904,10.853
	c5.401,0,9.884-3.942,10.7-9.164h0.154c2.851,0,5.451-1.382,6.979-3.481c1.886,3.225,5.351,5.376,9.324,5.376
	c1.988,0,3.873-0.564,5.503-1.485c0.918,3.942,4.433,6.81,8.659,6.81c1.274,0,2.548-0.257,3.62-0.82
	c1.935,1.69,4.431,2.765,7.235,2.765c5.401,0,9.933-3.942,10.749-9.164h0.154c2.851,0,5.349-1.331,6.928-3.43
	c1.883,3.174,5.401,5.325,9.374,5.325c1.988,0,3.873-0.564,5.45-1.485c0.918,3.942,4.433,6.81,8.663,6.81
	c4.381,0,8.05-3.124,8.764-7.322c1.63-0.103,3.107-0.666,4.331-1.587c0.05,6.041,4.891,10.853,10.901,10.853
	c5.401,0,9.884-3.942,10.7-9.164h0.152c2.854,0,5.401-1.331,6.981-3.43c1.886,3.174,5.348,5.325,9.324,5.325
	c2.542,0,4.856-0.906,6.712-2.367V115.49C342.374,109.659,337.47,104.96,331.398,104.96z"/>
<g>
</g>
<g>
</g>
<g>
</g>
<g>
</g>
<g>
</g>
<g>
</g>
<g>
</g>
<g>
</g>
<g>
</g>
<g>
</g>
<g>
</g>
<g>
</g>
<g>
</g>
<g>
</g>
<g>
</g>
</svg>
