<?xml version="1.0" encoding="iso-8859-1"?>
<!-- Generator: Adobe Illustrator 19.0.0, SVG Export Plug-In . SVG Version: 6.00 Build 0)  -->
<svg version="1.1" id="Capa_1" xmlns="http://www.w3.org/2000/svg" xmlns:xlink="http://www.w3.org/1999/xlink" x="0px" y="0px"
	 viewBox="0 0 512 512" style="enable-background:new 0 0 512 512;" xml:space="preserve">
<path style="fill:#E22952;" d="M493.506,160.296C505.439,189.857,512,222.16,512,256.001c0,115.676-76.716,213.42-182.033,245.146
	C306.553,508.203,281.712,512,256.001,512c-8.231,0-16.358-0.385-24.383-1.153c-47.738-4.499-91.649-22.122-128.118-49.208
	c-52.651-39.1-89.764-97.95-100.381-165.593C1.064,282.998,0,269.624,0,255.999c0-17.274,1.714-34.15,4.98-50.464
	C25.136,104.638,104.63,25.144,205.536,4.98C221.85,1.714,238.725,0,255.999,0c13.624,0,26.998,1.064,40.046,3.118
	c23.909,3.753,46.725,10.817,67.953,20.71c19.61,9.132,37.866,20.681,54.395,34.269C451.295,85.117,477.332,120.183,493.506,160.296
	z"/>
<g>
	<path style="fill:#F44E72;" d="M329.479,368.654c12.243,12.243,12.236,32.096,0,44.331l-97.862,97.862
		c-47.738-4.499-91.649-22.122-128.118-49.208l57.852-57.852c12.243-12.243,32.089-12.243,44.331,0
		c12.243,12.243,32.089,12.243,44.324,0.007l35.14-35.14c6.118-6.118,14.142-9.176,22.166-9.176
		C315.33,359.47,323.354,362.529,329.479,368.654z"/>
	<path style="fill:#F44E72;" d="M296.046,3.118L191.831,107.334c-12.243,12.243-32.089,12.243-44.331,0
		c-6.118-6.118-9.176-14.142-9.169-22.158c0-8.024,3.058-16.048,9.176-22.166l58.03-58.03C221.85,1.714,238.725,0,255.999,0
		C269.624,0,282.998,1.064,296.046,3.118z"/>
	<path style="fill:#F44E72;" d="M418.393,58.097l-75.29,75.29c-12.243,12.243-32.089,12.243-44.331,0
		c-6.118-6.118-9.176-14.142-9.176-22.166s3.058-16.048,9.176-22.166l65.226-65.226C383.608,32.96,401.865,44.509,418.393,58.097z"
		/>
	<path style="fill:#F44E72;" d="M271.627,160.532c12.243,12.243,12.243,32.089,0,44.331L98.741,377.749
		c-6.125,6.125-14.149,9.184-22.166,9.176c-8.024,0-16.048-3.058-22.166-9.176c-12.243-12.243-12.243-32.089,0-44.331l8.866-8.866
		c6.125-6.125,9.184-14.149,9.176-22.166c0-8.024-3.058-16.048-9.176-22.166c-12.243-12.243-32.089-12.243-44.331,0L3.118,296.047
		C1.064,282.998,0,269.624,0,255.999c0-17.274,1.714-34.15,4.98-50.464l62.729-62.729c6.118-6.118,14.142-9.176,22.166-9.176
		c8.017-0.007,16.04,3.051,22.158,9.169c12.243,12.243,12.243,32.089,0,44.331l-4.434,4.434c-12.243,12.243-12.243,32.089,0,44.331
		c12.243,12.243,32.089,12.243,44.331,0l75.364-75.364c6.118-6.118,14.142-9.176,22.166-9.176
		C257.485,151.355,265.509,154.414,271.627,160.532z"/>
	<path style="fill:#F44E72;" d="M493.506,160.296C505.439,189.857,512,222.16,512,256.001c0,115.676-76.716,213.42-182.033,245.146
		l159.232-159.232c12.243-12.243,12.243-32.089,0.007-44.324c-12.243-12.243-32.089-12.243-44.331,0l-34.349,34.349
		c-12.243,12.243-32.089,12.243-44.331,0c-6.125-6.125-9.184-14.149-9.176-22.166c0-8.024,3.058-16.048,9.176-22.166
		L493.506,160.296z"/>
</g>
<ellipse transform="matrix(-0.7071 0.7071 -0.7071 -0.7071 694.1635 27.4007)" style="fill:#FFCF4B;" cx="341.407" cy="157.466" rx="192.668" ry="50.15"/>
<path style="fill:#EFAA3A;" d="M205.172,293.699c19.585,19.585,96.458-25.533,171.701-100.776S497.232,40.807,477.649,21.222
	c7.036,7.036-48.257,73.734-123.499,148.976C278.906,245.441,212.209,300.735,205.172,293.699z"/>
<path style="fill:#E8E8E8;" d="M198.587,268.675c12.072,3.072,22.462,10.417,29.191,19.839
	c27.898,39.06-24.874,84.339-59.076,86.005c-5.481,0.281-11.097,2.002-16.6,4.704c-0.008,0.006-0.008,0.006-0.008,0.006
	c-0.301,0.151-0.603,0.303-0.904,0.453c-1.038,0.536-2.079,1.101-3.105,1.706c-3.353,1.934-6.672,4.203-9.894,6.696
	c-5.255,4.056-10.281,8.689-14.906,13.421c-8.705,8.906-23.72,1.437-21.803-10.869c9.284-59.577,28.195-93.448,48.978-110.145
	l0.017-0.013C166.594,267.522,183.847,264.911,198.587,268.675z"/>
<path style="fill:#D6D6D6;" d="M198.587,268.675c12.072,3.072,22.462,10.417,29.191,19.839
	c27.898,39.06-24.874,84.339-59.076,86.005c-5.481,0.281-11.097,2.002-16.6,4.704C169.215,369.521,233.669,327.913,198.587,268.675z
	"/>
<path style="fill:#F96D8C;" d="M150.459,280.498c-23.889,19.185-45.302,61.074-52.469,138.611c-0.391,4.231,4.992,6.359,7.578,2.988
	c7.615-9.929,19.496-23.922,32.835-34.17c0.905-0.695,1.816-1.372,2.732-2.029c0.155-0.111,0.309-0.222,0.464-0.331
	c0.95-0.673,1.906-1.327,2.867-1.955c0.102-0.067,0.204-0.133,0.306-0.199c0.963-0.624,1.933-1.221,2.906-1.793
	c0.134-0.078,0.267-0.157,0.401-0.234c1.024-0.592,2.051-1.16,3.082-1.689c0.009-0.005,0.019-0.01,0.029-0.016l0.001-0.001
	c5.801-2.966,11.723-4.867,17.512-5.164l0,0c3.194-7.203,8.966-12.979,16.218-16.058c1.949-0.828,3.958-1.616,6.025-2.352
	c0,0-23.197-11.24-40.722,3.535c0,0,9.614-36.092,39.419-51.75c0,0-33.751-0.062-57.016,37.353
	C132.627,345.247,125.006,312.397,150.459,280.498z"/>
<path style="fill:#535B70;" d="M197.504,251.008l50.361,50.361c4.362,4.362,4.362,11.436,0,15.799l-1.582,1.582
	c-4.362,4.362-11.436,4.362-15.799,0l-50.36-50.36c-4.362-4.362-4.362-11.436,0-15.799l1.582-1.582
	C186.067,246.644,193.14,246.644,197.504,251.008z"/>
<path style="fill:#42495B;" d="M233.057,303.942L233.057,303.942c-4.799,4.799-12.582,4.799-17.381,0l14.016,14.016
	c4.799,4.799,12.582,4.799,17.381,0l0,0c4.799-4.799,4.799-12.582,0-17.381l-14.016-14.016
	C237.856,291.36,237.856,299.142,233.057,303.942z"/>
<path style="fill:#535B70;" d="M214.885,233.627l50.36,50.361c4.362,4.362,4.362,11.436,0,15.799l-1.582,1.582
	c-4.362,4.362-11.436,4.362-15.799,0l-50.361-50.361c-4.362-4.362-4.362-11.436,0-15.799l1.582-1.582
	C203.448,229.265,210.521,229.265,214.885,233.627z"/>
<path style="fill:#42495B;" d="M250.436,286.561L250.436,286.561c-4.799,4.799-12.582,4.799-17.381,0l14.016,14.016
	c4.799,4.799,12.582,4.799,17.381,0l0,0c4.799-4.799,4.799-12.582,0-17.381l-14.016-14.016
	C255.237,273.979,255.237,281.761,250.436,286.561z"/>
<g>
</g>
<g>
</g>
<g>
</g>
<g>
</g>
<g>
</g>
<g>
</g>
<g>
</g>
<g>
</g>
<g>
</g>
<g>
</g>
<g>
</g>
<g>
</g>
<g>
</g>
<g>
</g>
<g>
</g>
</svg>
