<?xml version="1.0" encoding="iso-8859-1"?>
<!-- Generator: Adobe Illustrator 19.0.0, SVG Export Plug-In . SVG Version: 6.00 Build 0)  -->
<svg version="1.1" id="Capa_1" xmlns="http://www.w3.org/2000/svg" xmlns:xlink="http://www.w3.org/1999/xlink" x="0px" y="0px"
	 viewBox="0 0 436.907 436.907" style="enable-background:new 0 0 436.907 436.907;" xml:space="preserve">
<circle style="fill:#EA8953;" cx="218.453" cy="218.453" r="218.453"/>
<g style="opacity:0.1;">
	<path d="M431.54,266.502L262.937,97.925v-0.034c0,0-6.144-1.536-13.415,3.038c-10.957,6.281-15.975,21.129-18.466,33.28
		l-42.496-42.496l-0.034,0.99l-0.99-0.956l-18.637,46.49l8.568,27.477h-3.687v179.473l87.515,87.493
		C345.822,415.868,412.725,350.289,431.54,266.502z"/>
</g>
<path style="fill:#F6C358;" d="M267.126,149.69c4.685,9.421-10.238,18.189-20.715,17.226c-10.477-0.964-18.474-10.268-17.226-20.715
	c1.748-14.626,7.346-49.863,33.755-48.291c0,0-4.837,8.653-6.164,11.14C249.737,122.245,257.442,138.293,267.126,149.69
	L267.126,149.69z"/>
<path style="fill:#27A2DB;" d="M262.929,97.892c0,0-15.067-3.863-26.146,18.207l17.427,1.578c0,0,1.055-5.429,3.446-10.255
	C259.6,103.498,262.109,99.366,262.929,97.892z"/>
<rect x="173.783" y="179.371" style="fill:#D15241;" width="26.747" height="165.83"/>
<rect x="173.783" y="179.371" style="fill:#E56353;" width="13.373" height="165.83"/>
<rect x="173.783" y="165.717" style="fill:#F6C358;" width="26.747" height="13.629"/>
<path style="fill:#2F4859;" d="M188.562,91.72v44.408c1.739,0.258,3.096,1.692,3.096,3.503c0,1.991-1.614,3.606-3.606,3.606
	c-1.992,0-3.606-1.615-3.606-3.606c0-1.81,1.357-3.245,3.096-3.503V91.732l-18.646,46.5l8.564,27.495h10.595h8.787l10.367-27.495
	L188.562,91.72z"/>
<rect x="234.906" y="180.623" style="fill:#2D93BA;" width="26.747" height="165.83"/>
<rect x="234.906" y="180.623" style="fill:#27A2DB;" width="13.373" height="165.83"/>
<rect x="234.906" y="166.994" style="fill:#3A556A;" width="26.747" height="13.629"/>
<rect x="234.906" y="161.724" style="fill:#E56353;" width="26.747" height="5.277"/>
<g>
</g>
<g>
</g>
<g>
</g>
<g>
</g>
<g>
</g>
<g>
</g>
<g>
</g>
<g>
</g>
<g>
</g>
<g>
</g>
<g>
</g>
<g>
</g>
<g>
</g>
<g>
</g>
<g>
</g>
</svg>
