<?xml version="1.0" encoding="iso-8859-1"?>
<!-- Generator: Adobe Illustrator 19.0.0, SVG Export Plug-In . SVG Version: 6.00 Build 0)  -->
<svg version="1.1" id="Capa_1" xmlns="http://www.w3.org/2000/svg" xmlns:xlink="http://www.w3.org/1999/xlink" x="0px" y="0px"
	 viewBox="0 0 409.694 409.694" style="enable-background:new 0 0 409.694 409.694;" xml:space="preserve">
<path style="fill:#D5D6DB;" d="M66.351,96.862c0,0-13.824-61.44,30.208-44.032c0,0-18.432-29.184,18.432-14.848
	c0,0-13.312-9.728,13.824-20.48c4.096-1.536,19.968-30.72,39.936-10.24c0,0,27.136-19.456,28.16,6.144
	c0,0,36.352-22.528,29.184,5.632c0,0,50.176-26.112,46.592,0c0,0,31.232-22.528,38.4,7.168c0,0,43.52,4.096,19.968,22.528
	c0,0,26.624,12.288,6.656,27.648c0,0,29.696,12.8,1.024,20.48H66.351z"/>
<path style="fill:#CE412D;" d="M303.407,409.694H105.775c-7.168,0-13.312-5.12-14.336-11.264L48.943,96.862h311.808l-42.496,300.544
	C317.743,404.062,310.575,409.694,303.407,409.694z"/>
<g>
	<polygon style="fill:#EBF0F3;" points="303.407,409.694 275.247,409.694 302.895,96.862 342.319,96.862 	"/>
	<polygon style="fill:#EBF0F3;" points="248.111,409.694 219.951,409.694 226.095,96.862 265.519,96.862 	"/>
	<polygon style="fill:#EBF0F3;" points="191.279,409.694 163.119,409.694 146.735,96.862 185.647,96.862 	"/>
	<polygon style="fill:#EBF0F3;" points="134.959,409.694 106.799,409.694 67.887,96.862 107.311,96.862 	"/>
</g>
<g>
	<path style="fill:#FFFFFF;" d="M178.479,47.71c3.072,4.096-0.512,10.752-6.144,13.312c-5.632,2.56-11.264,0.512-14.336-4.096
		c-1.536-2.048-5.632-6.656-8.192-6.656c-6.144-1.024-12.288,1.024-14.336-4.096c-2.048-4.608,0-10.752,4.608-14.336
		c5.12-4.096,15.36-11.776,20.992-15.36c5.12-3.072,13.312,0,15.872,5.12c2.048,4.608-4.608,7.68-6.144,13.312
		C169.263,38.494,176.431,44.638,178.479,47.71z"/>
</g>
<g>
	
		<rect x="156.394" y="26.611" transform="matrix(-0.7786 0.6276 -0.6276 -0.7786 310.8719 -25.7473)" style="fill:#FCD462;" width="7.168" height="30.722"/>
	<polygon style="fill:#FCD462;" points="144.687,45.15 144.687,38.494 156.463,37.982 158.511,26.206 165.679,27.742 162.095,45.15 
			"/>
</g>
<g>
	<path style="fill:#FFFFFF;" d="M221.487,67.678c-3.584,3.584-10.752,1.024-14.336-4.096c-3.584-5.12-2.56-11.264,1.536-14.848
		c2.048-2.048,5.632-6.656,5.12-9.216c0-6.144-2.56-11.776,1.536-14.848c4.608-3.072,10.24-1.536,14.848,2.56
		c5.12,4.096,14.336,13.312,18.432,17.92s2.048,13.312-2.56,16.384c-4.608,3.072-8.192-3.072-14.336-4.096
		C229.167,57.438,224.559,65.118,221.487,67.678z"/>
</g>
<g>
	
		<rect x="208.771" y="45.036" transform="matrix(-0.6663 0.7457 -0.7457 -0.6663 409.7233 -86.1177)" style="fill:#FCD462;" width="30.72" height="7.168"/>
	<polygon style="fill:#FCD462;" points="238.895,51.806 221.487,51.294 218.415,33.886 225.071,32.862 227.631,44.638 
		239.407,45.15 	"/>
</g>
<g>
	<path style="fill:#FFFFFF;" d="M89.903,76.894c-5.12-1.024-6.656-8.704-4.096-14.336c2.56-5.632,8.192-8.192,13.312-6.656
		c2.56,0.512,8.704,1.024,10.752-0.512c5.12-3.584,8.704-8.704,13.312-6.656c4.608,2.048,6.656,8.192,6.144,13.824
		c-1.024,6.656-4.096,19.456-6.144,25.6c-2.048,6.144-10.24,8.704-15.36,6.656c-4.608-2.048-1.536-8.704-4.096-14.336
		C102.703,77.406,93.487,77.406,89.903,76.894z"/>
</g>
<g>
	
		<rect x="103.931" y="52.942" transform="matrix(-0.168 0.9858 -0.9858 -0.168 192.9091 -26.2103)" style="fill:#FCD462;" width="7.168" height="30.72"/>
	<polygon style="fill:#FCD462;" points="112.431,83.038 103.215,67.678 116.527,55.902 121.135,61.022 112.431,69.214 
		118.575,79.454 	"/>
</g>
<g>
	<path style="fill:#FFFFFF;" d="M280.879,61.022c-4.608-3.072-3.072-10.24,1.024-14.848s10.752-4.608,14.848-1.024
		c2.048,1.536,7.68,4.096,10.24,3.584c6.144-1.536,11.264-5.12,14.848-1.024c3.584,3.584,3.584,9.728,0.512,15.36
		s-10.24,16.384-14.336,21.504c-4.096,5.12-12.8,4.608-16.384,0.512c-3.584-3.584,1.536-8.704,1.024-14.848
		C292.655,66.142,283.951,63.07,280.879,61.022z"/>
</g>
<g>
	
		<rect x="296.559" y="44.075" transform="matrix(-0.515 0.8572 -0.8572 -0.515 505.6625 -167.2368)" style="fill:#FCD462;" width="7.168" height="30.72"/>
	<polygon style="fill:#FCD462;" points="299.823,75.358 296.751,57.95 313.135,51.294 315.695,57.95 304.943,62.046 306.479,73.822 
			"/>
</g>
<g>
	<path style="fill:#FFFFFF;" d="M181.039,92.254c-2.56,2.56-7.68,1.024-10.24-3.072s-1.536-7.68,1.024-10.24
		c1.536-1.024,3.584-4.608,3.584-6.656c0-4.608-2.048-8.192,1.024-10.24c3.072-2.048,7.168-1.024,10.752,1.536
		c3.584,3.072,9.728,9.216,12.8,12.8c3.072,3.584,1.536,9.216-1.536,11.264c-3.072,2.048-5.632-2.56-10.24-3.072
		C186.159,85.086,182.575,90.718,181.039,92.254z"/>
</g>
<g>
	
		<rect x="171.896" y="75.269" transform="matrix(-0.6669 0.7451 -0.7451 -0.6669 363.2149 -4.6533)" style="fill:#FCD462;" width="21.503" height="7.168"/>
	<polygon style="fill:#FCD462;" points="193.327,82.014 180.015,82.014 177.455,68.702 184.623,67.678 185.647,74.846 
		193.327,75.358 	"/>
</g>
<g>
	<path style="fill:#FFFFFF;" d="M260.399,89.694c-2.56,2.56-7.68,1.024-10.24-3.072c-2.56-3.584-1.536-7.68,1.024-10.24
		c1.536-1.024,3.584-4.608,3.584-6.656c0-4.608-2.048-8.192,1.024-10.24c3.072-2.048,7.168-1.024,10.752,1.536
		c3.584,3.072,9.728,9.216,12.8,12.8c3.072,3.584,1.536,9.216-1.536,11.264c-3.072,2.048-5.632-2.56-10.24-3.072
		C265.519,82.014,262.447,87.646,260.399,89.694z"/>
</g>
<g>
	
		<rect x="251.5" y="72.144" transform="matrix(-0.6663 0.7457 -0.7457 -0.6663 493.4582 -69.3732)" style="fill:#FCD462;" width="21.504" height="7.168"/>
	<polygon style="fill:#FCD462;" points="272.687,79.454 259.375,78.942 257.327,66.142 263.983,64.606 265.519,72.286 
		273.199,72.286 	"/>
</g>
<g>
</g>
<g>
</g>
<g>
</g>
<g>
</g>
<g>
</g>
<g>
</g>
<g>
</g>
<g>
</g>
<g>
</g>
<g>
</g>
<g>
</g>
<g>
</g>
<g>
</g>
<g>
</g>
<g>
</g>
</svg>
