<?xml version="1.0" encoding="iso-8859-1"?>
<!-- Generator: Adobe Illustrator 19.0.0, SVG Export Plug-In . SVG Version: 6.00 Build 0)  -->
<svg version="1.1" id="Capa_1" xmlns="http://www.w3.org/2000/svg" xmlns:xlink="http://www.w3.org/1999/xlink" x="0px" y="0px"
	 viewBox="0 0 436.907 436.907" style="enable-background:new 0 0 436.907 436.907;" xml:space="preserve">
<circle style="fill:#EFC84A;" cx="218.453" cy="218.453" r="218.453"/>
<path style="opacity:0.1;enable-background:new    ;" d="M272.384,166.571l-52.565-40.277l-55.296,40.277h-43.008l-13.653,19.456
	v107.52h-7.851v8.192h13.312l-0.683,0.341H90.453v8.192l126.293,126.293c0.683,0,1.024,0,1.707,0
	c98.304,0,181.589-65.195,208.896-154.624L311.637,166.229h-39.253V166.571z"/>
<polygon style="fill:#D15241;" points="107.861,186.027 121.515,166.571 311.637,166.571 329.045,186.027 "/>
<rect x="107.861" y="186.027" style="fill:#D5D6DB;" width="221.184" height="107.52"/>
<polygon style="fill:#E1E6E9;" points="273.408,293.547 163.499,293.547 163.499,167.253 219.819,126.293 273.408,167.253 "/>
<polygon style="fill:#E56353;" points="273.408,167.253 219.819,126.293 163.499,167.253 163.499,175.787 219.819,137.899 
	273.408,175.787 "/>
<rect x="202.752" y="253.269" style="fill:#DC8744;" width="31.403" height="40.277"/>
<rect x="100.011" y="293.547" style="fill:#64798A;" width="236.544" height="10.581"/>
<g>
	<rect x="90.453" y="302.08" style="fill:#3A556A;" width="256" height="8.192"/>
	<path style="fill:#3A556A;" d="M184.32,175.787c-0.341,0.341-0.341,0.683-0.341,1.024s0,0.683,0.341,1.024
		c0.341,0.341,1.024,0.341,2.389,0.683c1.365,0.341,2.048,0.683,2.731,1.365c0.683,0.683,1.024,1.365,1.024,2.731
		c0,1.024-0.341,2.048-1.365,2.731c-0.683,0.683-2.048,1.024-3.413,1.024c-2.048,0-3.755-0.683-5.461-2.389l1.707-2.048
		c1.365,1.365,2.731,1.707,3.755,1.707c0.683,0,1.024,0,1.365-0.341c0.341-0.341,0.341-0.683,0.341-1.024
		c0-0.341,0-0.683-0.341-1.024c-0.341-0.341-1.024-0.341-1.707-0.683c-1.365-0.341-2.389-0.683-3.072-1.365
		c-0.683-0.683-1.024-1.365-1.024-2.731s0.341-2.048,1.365-2.731c1.024-0.683,2.048-1.024,3.072-1.024c0.683,0,1.707,0,2.389,0.341
		c0.683,0.341,1.707,0.683,2.048,1.365l-1.365,2.048c-1.024-0.683-2.389-1.365-3.413-1.365
		C185.003,175.445,184.661,175.787,184.32,175.787z"/>
	<path style="fill:#3A556A;" d="M198.656,183.637c1.365,0,2.389-0.683,3.413-1.707l1.707,1.707c-1.365,1.707-3.072,2.389-5.12,2.389
		c-2.048,0-3.413-0.683-4.779-1.707c-1.365-1.365-2.048-2.731-2.048-4.779c0-2.048,0.683-3.413,2.048-4.779s2.731-2.048,4.779-2.048
		c2.048,0,3.755,0.683,5.12,2.389l-1.365,2.389c-1.024-1.024-2.048-1.707-3.413-1.707c-1.024,0-2.048,0.341-2.731,1.024
		c-0.683,0.683-1.024,1.707-1.024,2.731c0,1.024,0.341,2.048,1.024,2.731C196.949,183.296,197.632,183.637,198.656,183.637z"/>
	<path style="fill:#3A556A;" d="M214.016,173.397h2.731v12.629h-2.731v-5.12h-5.12v5.12h-2.731v-12.629h2.731v5.461h5.12V173.397z"
		/>
	<path style="fill:#3A556A;" d="M230.741,184.32c-1.365,1.365-2.731,2.048-4.779,2.048s-3.413-0.683-4.779-2.048
		s-2.048-2.731-2.048-4.779c0-1.707,0.683-3.413,2.048-4.779s2.731-2.048,4.779-2.048s3.413,0.683,4.779,2.048
		c1.365,1.365,2.048,2.731,2.048,4.779C232.789,181.589,232.107,182.955,230.741,184.32z M229.717,179.541
		c0-1.024-0.341-2.048-1.024-2.731c-0.683-0.683-1.707-1.365-2.731-1.365s-2.048,0.341-2.731,1.365
		c-0.683,0.683-1.024,1.707-1.024,2.731c0,1.024,0.341,2.048,1.024,2.731c0.683,0.683,1.707,1.024,2.731,1.024
		s2.048-0.341,2.731-1.024C229.376,181.589,229.717,180.565,229.717,179.541z"/>
	<path style="fill:#3A556A;" d="M245.76,184.32c-1.365,1.365-2.731,2.048-4.779,2.048c-2.048,0-3.413-0.683-4.779-2.048
		c-1.365-1.365-2.048-2.731-2.048-4.779c0-1.707,0.683-3.413,2.048-4.779c1.365-1.365,2.731-2.048,4.779-2.048
		c2.048,0,3.413,0.683,4.779,2.048c1.365,1.365,2.048,2.731,2.048,4.779C247.467,181.589,247.125,182.955,245.76,184.32z
		 M244.736,179.541c0-1.024-0.341-2.048-1.024-2.731c-0.683-0.683-1.707-1.365-2.731-1.365s-2.048,0.341-2.731,1.365
		c-0.683,0.683-1.024,1.707-1.024,2.731c0,1.024,0.341,2.048,1.024,2.731c0.683,0.683,1.707,1.024,2.731,1.024
		s2.048-0.341,2.731-1.024C244.395,181.589,244.736,180.565,244.736,179.541z"/>
	<path style="fill:#3A556A;" d="M249.856,186.027v-12.629h2.731v10.24h5.461v2.389H249.856z"/>
</g>
<g>
	<path style="fill:#27A2DB;" d="M217.771,147.456c-5.461,0-10.24,4.437-10.24,10.24h10.24V147.456z"/>
	<path style="fill:#27A2DB;" d="M207.531,159.061c0,5.461,4.437,10.24,10.24,10.24v-10.24H207.531z"/>
	<path style="fill:#27A2DB;" d="M219.136,169.301c5.461,0,10.24-4.437,10.24-10.24h-10.24V169.301z"/>
	<path style="fill:#27A2DB;" d="M219.136,147.456v10.24h10.24C229.376,151.893,224.597,147.456,219.136,147.456z"/>
	<rect x="303.445" y="199.68" style="fill:#27A2DB;" width="20.139" height="23.552"/>
	<rect x="279.552" y="199.68" style="fill:#27A2DB;" width="20.139" height="23.552"/>
	<rect x="197.291" y="192.853" style="fill:#27A2DB;" width="20.139" height="23.552"/>
	<rect x="172.715" y="192.853" style="fill:#27A2DB;" width="20.139" height="23.552"/>
	<rect x="246.443" y="192.853" style="fill:#27A2DB;" width="20.139" height="23.552"/>
	<rect x="221.867" y="192.853" style="fill:#27A2DB;" width="20.139" height="23.552"/>
	<rect x="197.291" y="220.843" style="fill:#27A2DB;" width="20.139" height="23.552"/>
	<rect x="172.715" y="220.843" style="fill:#27A2DB;" width="20.139" height="23.552"/>
	<rect x="246.443" y="220.843" style="fill:#27A2DB;" width="20.139" height="23.552"/>
	<rect x="221.867" y="220.843" style="fill:#27A2DB;" width="20.139" height="23.552"/>
	<rect x="303.445" y="227.669" style="fill:#27A2DB;" width="20.139" height="23.552"/>
	<rect x="279.552" y="227.669" style="fill:#27A2DB;" width="20.139" height="23.552"/>
	<rect x="303.445" y="256" style="fill:#27A2DB;" width="20.139" height="23.552"/>
	<rect x="279.552" y="256" style="fill:#27A2DB;" width="20.139" height="23.552"/>
</g>
<g>
	<rect x="303.445" y="219.819" style="fill:#2D93BA;" width="20.139" height="3.413"/>
	<rect x="279.552" y="219.819" style="fill:#2D93BA;" width="20.139" height="3.413"/>
	<rect x="246.443" y="212.992" style="fill:#2D93BA;" width="20.139" height="3.413"/>
	<rect x="197.291" y="212.992" style="fill:#2D93BA;" width="20.139" height="3.413"/>
	<rect x="246.443" y="240.981" style="fill:#2D93BA;" width="20.139" height="3.413"/>
	<rect x="221.867" y="212.992" style="fill:#2D93BA;" width="20.139" height="3.413"/>
	<rect x="221.867" y="240.981" style="fill:#2D93BA;" width="20.139" height="3.413"/>
	<rect x="197.291" y="240.981" style="fill:#2D93BA;" width="20.139" height="3.413"/>
	<rect x="172.715" y="212.992" style="fill:#2D93BA;" width="20.139" height="3.413"/>
	<rect x="172.715" y="240.981" style="fill:#2D93BA;" width="20.139" height="3.413"/>
	<rect x="303.445" y="247.808" style="fill:#2D93BA;" width="20.139" height="3.413"/>
	<rect x="279.552" y="247.808" style="fill:#2D93BA;" width="20.139" height="3.413"/>
	<rect x="303.445" y="276.139" style="fill:#2D93BA;" width="20.139" height="3.413"/>
	<rect x="279.552" y="276.139" style="fill:#2D93BA;" width="20.139" height="3.413"/>
</g>
<g>
	<rect x="136.192" y="199.68" style="fill:#27A2DB;" width="20.139" height="23.552"/>
	<rect x="112.299" y="199.68" style="fill:#27A2DB;" width="20.139" height="23.552"/>
	<rect x="136.192" y="227.669" style="fill:#27A2DB;" width="20.139" height="23.552"/>
	<rect x="112.299" y="227.669" style="fill:#27A2DB;" width="20.139" height="23.552"/>
	<rect x="136.192" y="256" style="fill:#27A2DB;" width="20.139" height="23.552"/>
	<rect x="112.299" y="256" style="fill:#27A2DB;" width="20.139" height="23.552"/>
</g>
<g>
	<rect x="136.192" y="219.819" style="fill:#2D93BA;" width="20.139" height="3.413"/>
	<rect x="112.299" y="219.819" style="fill:#2D93BA;" width="20.139" height="3.413"/>
	<rect x="136.192" y="247.808" style="fill:#2D93BA;" width="20.139" height="3.413"/>
	<rect x="112.299" y="247.808" style="fill:#2D93BA;" width="20.139" height="3.413"/>
	<rect x="136.192" y="276.139" style="fill:#2D93BA;" width="20.139" height="3.413"/>
	<rect x="112.299" y="276.139" style="fill:#2D93BA;" width="20.139" height="3.413"/>
</g>
<g>
</g>
<g>
</g>
<g>
</g>
<g>
</g>
<g>
</g>
<g>
</g>
<g>
</g>
<g>
</g>
<g>
</g>
<g>
</g>
<g>
</g>
<g>
</g>
<g>
</g>
<g>
</g>
<g>
</g>
</svg>
