<?xml version="1.0" encoding="iso-8859-1"?>
<!-- Generator: Adobe Illustrator 19.0.0, SVG Export Plug-In . SVG Version: 6.00 Build 0)  -->
<svg version="1.1" id="Capa_1" xmlns="http://www.w3.org/2000/svg" xmlns:xlink="http://www.w3.org/1999/xlink" x="0px" y="0px"
	 viewBox="0 0 512 512" style="enable-background:new 0 0 512 512;" xml:space="preserve">
<path style="fill:#F4900C;" d="M455.111,0H56.889C25.472,0,0,25.472,0,56.889v398.222C0,486.528,25.472,512,56.889,512h398.222
	C486.528,512,512,486.528,512,455.111V56.889C512,25.472,486.528,0,455.111,0z"/>
<g>
	<polygon style="fill:#485359;" points="227.556,42.667 199.111,42.667 142.222,99.556 142.222,512 284.444,512 284.444,99.556 	"/>
	<path style="fill:#485359;" d="M469.333,156.444c0-14.222-14.222-14.222-14.222-14.222h-99.556c0,0-14.222,0-14.222,14.222V512
		h113.778c4.911,0,9.676-0.622,14.222-1.793V156.444z"/>
</g>
<g>
	<path style="fill:#292F33;" d="M71.111,184.889H0v270.222C0,486.528,25.472,512,56.889,512h28.444V199.111
		C85.333,199.111,85.333,184.889,71.111,184.889z"/>
	<path style="fill:#292F33;" d="M384,227.556H270.222C256,227.556,256,241.778,256,241.778V512h142.222V241.778
		C398.222,227.556,384,227.556,384,227.556z"/>
	<path style="fill:#292F33;" d="M156.444,270.222H71.111c0,0-14.222-0.014-14.222,14.222V512h113.778V284.444
		C170.667,284.444,170.667,270.222,156.444,270.222z"/>
	<path style="fill:#292F33;" d="M440.889,369.778V512h14.222C486.528,512,512,486.528,512,455.111v-99.556h-56.889
		C440.889,355.556,440.889,369.778,440.889,369.778z"/>
</g>
<g>
	<path style="fill:#FFCC4D;" d="M142.222,440.889h-28.444v-28.444h28.444V440.889z"/>
	<path style="fill:#FFCC4D;" d="M142.222,327.111h-28.444v-28.444h28.444V327.111z"/>
	<path style="fill:#FFCC4D;" d="M113.778,384H85.333v-28.444h28.444V384z"/>
	<path style="fill:#FFCC4D;" d="M256,156.444h-28.444V128H256V156.444z"/>
	<path style="fill:#FFCC4D;" d="M256,213.333h-28.444v-28.444H256V213.333z"/>
	<path style="fill:#FFCC4D;" d="M227.556,270.222h-28.444v-28.444h28.444V270.222z"/>
	<path style="fill:#FFCC4D;" d="M369.778,284.444h-28.444V256h28.444V284.444z"/>
	<path style="fill:#FFCC4D;" d="M341.333,341.333h-28.444v-28.444h28.444V341.333z"/>
	<path style="fill:#FFCC4D;" d="M312.889,426.667h-28.444v-28.444h28.444V426.667z"/>
	<path style="fill:#FFCC4D;" d="M440.889,199.111h-28.444v-28.444h28.444V199.111z"/>
	<path style="fill:#FFCC4D;" d="M440.889,256h-28.444v-28.444h28.444V256z"/>
</g>
<g>
</g>
<g>
</g>
<g>
</g>
<g>
</g>
<g>
</g>
<g>
</g>
<g>
</g>
<g>
</g>
<g>
</g>
<g>
</g>
<g>
</g>
<g>
</g>
<g>
</g>
<g>
</g>
<g>
</g>
</svg>
