<?xml version="1.0" encoding="iso-8859-1"?>
<!-- Generator: Adobe Illustrator 19.0.0, SVG Export Plug-In . SVG Version: 6.00 Build 0)  -->
<svg version="1.1" id="Capa_1" xmlns="http://www.w3.org/2000/svg" xmlns:xlink="http://www.w3.org/1999/xlink" x="0px" y="0px"
	 viewBox="0 0 512 512" style="enable-background:new 0 0 512 512;" xml:space="preserve">
<rect x="240.83" style="fill:#DFDFE1;" width="30" height="75"/>
<g>
	<rect x="256" style="fill:#AFAEB4;" width="14.834" height="75"/>
	<path style="fill:#AFAEB4;" d="M512,512H361V241h151V512z"/>
</g>
<path style="fill:#DFDFE1;" d="M151,512H0V241h151V512z"/>
<path style="fill:#F2F2F4;" d="M391,512H121V60h270V512z"/>
<path style="fill:#DFDFE1;" d="M391,512H256V60h135V512z"/>
<rect x="211" y="442" style="fill:#87DAFF;" width="90" height="70"/>
<rect x="256" y="442" style="fill:#00C3FF;" width="45" height="70"/>
<rect x="241" y="247" style="fill:#87DAFF;" width="30" height="40"/>
<rect x="301" y="247" style="fill:#00C3FF;" width="30" height="40"/>
<g>
	<rect x="181" y="247" style="fill:#87DAFF;" width="30" height="40"/>
	<rect x="241" y="317" style="fill:#87DAFF;" width="30" height="40"/>
</g>
<rect x="301" y="317" style="fill:#00C3FF;" width="30" height="40"/>
<g>
	<rect x="181" y="317" style="fill:#87DAFF;" width="30" height="40"/>
	<rect x="241" y="177" style="fill:#87DAFF;" width="30" height="40"/>
</g>
<rect x="301" y="177" style="fill:#00C3FF;" width="30" height="40"/>
<g>
	<rect x="181" y="177" style="fill:#87DAFF;" width="30" height="40"/>
	<rect x="241" y="107" style="fill:#87DAFF;" width="30" height="40"/>
</g>
<rect x="301" y="107" style="fill:#00C3FF;" width="30" height="40"/>
<rect x="181" y="107" style="fill:#87DAFF;" width="30" height="40"/>
<path style="fill:#8FE673;" d="M191,452c0-35.841,29.159-65,65-65s65,29.159,65,65H191z"/>
<path style="fill:#76CC5B;" d="M256,452h65c0-35.841-29.159-65-65-65V452z"/>
<g>
	<rect x="255.83" y="247" style="fill:#00C3FF;" width="15.166" height="40"/>
	<rect x="255.83" y="317" style="fill:#00C3FF;" width="15.166" height="40"/>
	<rect x="255.83" y="177" style="fill:#00C3FF;" width="15.166" height="40"/>
	<rect x="255.83" y="107" style="fill:#00C3FF;" width="15.166" height="40"/>
</g>
<g>
</g>
<g>
</g>
<g>
</g>
<g>
</g>
<g>
</g>
<g>
</g>
<g>
</g>
<g>
</g>
<g>
</g>
<g>
</g>
<g>
</g>
<g>
</g>
<g>
</g>
<g>
</g>
<g>
</g>
</svg>
