<?xml version="1.0" encoding="iso-8859-1"?>
<!-- Generator: Adobe Illustrator 19.0.0, SVG Export Plug-In . SVG Version: 6.00 Build 0)  -->
<svg version="1.1" id="Capa_1" xmlns="http://www.w3.org/2000/svg" xmlns:xlink="http://www.w3.org/1999/xlink" x="0px" y="0px"
	 viewBox="0 0 512 512" style="enable-background:new 0 0 512 512;" xml:space="preserve">
<g transform="matrix(1.25 0 0 -1.25 0 45)">
	<path style="fill:#AAB8C2;" d="M193.422-350.844c0-12.572,10.195-22.756,22.756-22.756h159.289
		c12.572,0,22.756,10.183,22.756,22.756V-168.8c0,12.572-10.183,22.756-22.756,22.756H216.178
		c-12.561,0-22.756-10.183-22.756-22.756V-350.844z"/>
	<path style="fill:#292F33;" d="M375.467-146.044H261.689V-168.8h136.533C398.222-156.228,388.039-146.044,375.467-146.044"/>
	<path style="fill:#3B88C3;" d="M375.467-350.844H34.133v45.511h341.333V-350.844z"/>
	<g transform="translate(3 20)">
		<path style="fill:#CCD6DD;" d="M31.133-166.044c-12.561,0-22.756-10.183-22.756-22.756v-182.044
			c0-12.572,10.195-22.756,22.756-22.756h227.556v227.556L31.133-166.044L31.133-166.044z"/>
		<path style="fill:#66757F;" d="M31.133-166.044c-12.561,0-22.756-10.183-22.756-22.756h250.311v22.756H31.133z"/>
	</g>
	<g>
		<path style="fill:#55ACEE;" d="M34.133-237.067h45.511v45.511H34.133V-237.067z"/>
		<path style="fill:#55ACEE;" d="M193.422-237.067h45.511v45.511h-45.511L193.422-237.067L193.422-237.067z"/>
		<path style="fill:#55ACEE;" d="M113.778-237.067h45.511v45.511h-45.511V-237.067z"/>
	</g>
	<g>
		<path style="fill:#3B88C3;" d="M375.467-237.067h-45.511v45.511h45.511V-237.067z"/>
		<path style="fill:#3B88C3;" d="M307.2-237.067h-45.511v45.511H307.2V-237.067z"/>
	</g>
	<path style="fill:#55ACEE;" d="M238.933-373.6h-204.8v68.267h204.8V-373.6z"/>
	<path style="fill:#3B88C3;" d="M193.422-373.6H79.644v68.267h113.778V-373.6z"/>
	<path style="fill:#DD2E44;" d="M261.689-259.822H11.378v-45.511h250.311L261.689-259.822L261.689-259.822z"/>
	<path style="fill:#F4ABBA;" d="M193.422-293.956H79.644v22.756h113.778V-293.956z"/>
	<path style="fill:#FFFFFF;" d="M170.667-293.956H102.4v22.756h68.267V-293.956z"/>
	<path style="fill:#A0041E;" d="M398.222-305.333H261.689v45.511h136.533V-305.333z"/>
	<g>
		<path style="fill:#292F33;" d="M79.644-146.044H56.889v22.756h22.756V-146.044z"/>
		<path style="fill:#292F33;" d="M193.422-146.044h22.756v22.756h-22.756V-146.044z"/>
	</g>
	<path style="fill:#DD2E44;" d="M238.933-100.533c0-12.561-10.183-22.756-22.756-22.756H56.889
		c-12.561,0-22.756,10.195-22.756,22.756V13.244C34.133,25.805,44.328,36,56.889,36h159.289c12.572,0,22.756-10.195,22.756-22.756
		V-100.533z"/>
	<g>
		<path style="fill:#FFFFFF;" d="M120.167-79.494c7.009,0,12.436-3.186,12.436-10.524c0-7.327-5.427-10.513-11.48-10.513H67.897
			c-7.02,0-12.436,3.186-12.436,10.513c0,3.356,2.071,6.223,3.663,8.135c13.233,15.77,27.579,30.117,39.686,47.65
			c2.867,4.141,5.575,9.08,5.575,14.825c0,6.531-4.938,12.265-11.469,12.265c-18.33,0-9.569-25.816-24.872-25.816
			c-7.646,0-11.628,5.416-11.628,11.64c0,20.07,17.851,36.17,37.455,36.17s35.373-12.902,35.373-33.144
			c0-22.152-24.701-44.146-38.241-61.201L120.167-79.494L120.167-79.494z"/>
		<path style="fill:#FFFFFF;" d="M185.461-10.011h-0.319l-21.516-44.465h21.834L185.461-10.011L185.461-10.011z M147.049-75.512
			c-7.816,0-11.162,5.268-11.162,9.398c0,3.515,1.274,5.427,2.241,7.02l35.692,64.705c3.515,6.372,7.976,9.25,16.259,9.25
			c9.25,0,18.33-5.905,18.33-20.401v-48.936h2.708c6.213,0,11.162-4.141,11.162-10.524c0-6.372-4.949-10.513-11.162-10.513h-2.708
			v-13.54c0-8.454-3.345-12.436-11.48-12.436c-8.123,0-11.469,3.982-11.469,12.436v13.54H147.049z"/>
	</g>
</g>
<g>
</g>
<g>
</g>
<g>
</g>
<g>
</g>
<g>
</g>
<g>
</g>
<g>
</g>
<g>
</g>
<g>
</g>
<g>
</g>
<g>
</g>
<g>
</g>
<g>
</g>
<g>
</g>
<g>
</g>
</svg>
