<?xml version="1.0" encoding="iso-8859-1"?>
<!-- Generator: Adobe Illustrator 19.0.0, SVG Export Plug-In . SVG Version: 6.00 Build 0)  -->
<svg version="1.1" id="Capa_1" xmlns="http://www.w3.org/2000/svg" xmlns:xlink="http://www.w3.org/1999/xlink" x="0px" y="0px"
	 viewBox="0 0 512.002 512.002" style="enable-background:new 0 0 512.002 512.002;" xml:space="preserve">
<circle style="fill:#FAD97E;" cx="256.001" cy="181.201" r="109.97"/>
<path style="opacity:0.1;enable-background:new    ;" d="M256.001,71.229c-5.992,0-11.869,0.487-17.601,1.409
	c52.369,8.425,92.374,53.821,92.374,108.566c0,54.746-40.004,100.141-92.374,108.566c5.732,0.922,11.609,1.409,17.601,1.409
	c60.738,0,109.975-49.238,109.975-109.975C365.976,120.467,316.739,71.229,256.001,71.229z"/>
<path style="fill:#FAD97E;" d="M361.961,504.501h-211.92c-16.125,0-28.652-14.045-26.816-30.065l31.165-271.868h203.222
	l31.165,271.868C390.613,490.456,378.086,504.501,361.961,504.501z"/>
<polygon style="fill:#A16B4E;" points="378.49,384.7 133.512,384.7 126.278,447.806 385.724,447.806 "/>
<path style="opacity:0.1;enable-background:new    ;" d="M388.777,474.436l-20.501-178.844l0,0l-10.664-93.024H154.39
	l-10.664,93.024h180.121l20.501,178.844c1.836,16.02-10.691,30.065-26.816,30.065h44.428
	C378.086,504.501,390.613,490.456,388.777,474.436z"/>
<path style="fill:#A16B4E;" d="M369.927,263.473H142.075c-11.201,0-20.281-9.08-20.281-20.281v-53.569
	c0-11.201,9.08-20.281,20.281-20.281h227.852c11.201,0,20.281,9.08,20.281,20.281v53.569
	C390.208,254.392,381.128,263.473,369.927,263.473z"/>
<path style="opacity:0.1;enable-background:new    ;" d="M369.927,169.342h-31.764c11.201,0,20.281,9.08,20.281,20.281v53.569
	c0,11.201-9.08,20.281-20.281,20.281h31.764c11.201,0,20.281-9.08,20.281-20.281v-53.569
	C390.208,178.422,381.128,169.342,369.927,169.342z"/>
<path style="fill:#F15B70;" d="M457.812,73.143l-58.546-58.546c-10.5-10.5-27.891-9.167-36.667,2.812l-85.698,116.963
	c-7.064,9.641-6.04,22.993,2.411,31.444l27.28,27.28c8.451,8.451,21.803,9.475,31.444,2.411L455,109.809
	C466.978,101.033,468.312,83.643,457.812,73.143z"/>
<path style="opacity:0.1;enable-background:new    ;" d="M389.131,38.567l44.694,44.705c3.643,3.644,3.183,9.679-0.972,12.727
	l-103.268,75.785c-3.342,2.453-7.973,2.104-10.911-0.821l-17.18-17.107c-2.946-2.933-3.307-7.578-0.85-10.931l75.754-103.384
	C379.446,35.383,385.485,34.92,389.131,38.567z"/>
<path style="fill:#F15B70;" d="M112.737,14.597L54.191,73.143c-10.5,10.5-9.167,27.89,2.812,36.667l116.964,85.698
	c9.641,7.064,22.993,6.04,31.444-2.411l27.28-27.28c8.451-8.451,9.475-21.803,2.411-31.444L149.404,17.408
	C140.627,5.43,123.237,4.096,112.737,14.597z"/>
<path style="opacity:0.1;enable-background:new    ;" d="M78.161,83.277l44.705-44.693c3.644-3.644,9.679-3.183,12.727,0.972
	l75.785,103.268c2.453,3.342,2.104,7.973-0.821,10.911l-17.107,17.18c-2.933,2.946-7.578,3.307-10.931,0.85L79.137,96.01
	C74.977,92.962,74.515,86.923,78.161,83.277z"/>
<path style="fill:#F15B70;" d="M54.191,359.671l58.546,58.546c10.5,10.5,27.89,9.167,36.667-2.812l85.698-116.964
	c7.064-9.641,6.04-22.993-2.411-31.444l-27.28-27.28c-8.451-8.451-21.803-9.475-31.444-2.411L57.003,323.004
	C45.024,331.781,43.69,349.171,54.191,359.671z"/>
<path style="opacity:0.1;enable-background:new    ;" d="M122.872,394.247l-44.693-44.705c-3.644-3.644-3.183-9.678,0.972-12.727
	l103.268-75.785c3.342-2.453,7.973-2.104,10.911,0.821l17.18,17.107c2.946,2.933,3.307,7.578,0.85,10.931l-75.754,103.383
	C132.556,397.431,126.517,397.894,122.872,394.247z"/>
<path style="fill:#F15B70;" d="M399.266,418.217l58.546-58.546c10.5-10.5,9.167-27.891-2.812-36.667l-116.964-85.698
	c-9.641-7.064-22.993-6.04-31.444,2.411l-27.28,27.28c-8.451,8.451-9.475,21.803-2.411,31.444l85.698,116.964
	C371.375,427.384,388.765,428.718,399.266,418.217z"/>
<path style="opacity:0.1;enable-background:new    ;" d="M433.841,349.537l-44.705,44.694c-3.644,3.643-9.679,3.183-12.727-0.972
	l-75.785-103.268c-2.453-3.342-2.104-7.973,0.821-10.911l17.107-17.18c2.933-2.946,7.578-3.307,10.931-0.85l103.383,75.754
	C437.025,339.852,437.488,345.891,433.841,349.537z"/>
<circle style="fill:#FC8063;" cx="256.001" cy="216.411" r="19.14"/>
<path d="M198.766,176.207l17.108-17.18c5.57-5.595,6.222-14.275,1.552-20.64L141.64,35.118c-2.749-3.746-6.983-6.097-11.616-6.451
	c-4.633-0.355-9.175,1.327-12.461,4.613L72.859,77.973c-3.288,3.288-4.97,7.831-4.615,12.467s2.709,8.871,6.46,11.62l103.384,75.755
	c2.842,2.082,6.14,3.104,9.418,3.104C191.599,180.919,195.662,179.324,198.766,176.207z M83.57,89.96
	c-0.224-0.164-0.349-0.388-0.37-0.665s0.068-0.517,0.265-0.714l44.705-44.693c0.177-0.178,0.391-0.268,0.634-0.268
	c0.026,0,0.052,0.001,0.079,0.004c0.277,0.021,0.5,0.145,0.665,0.369l75.786,103.268c0.267,0.365,0.23,0.862-0.089,1.182
	l-17.107,17.18c-0.32,0.321-0.818,0.36-1.183,0.092L83.57,89.96z M313.381,176.278c3.099,3.085,7.142,4.662,11.216,4.662
	c3.282,0,6.585-1.024,9.425-3.109l76.701-56.289c3.339-2.451,4.06-7.144,1.609-10.484c-2.451-3.339-7.145-4.058-10.484-1.609
	l-76.702,56.289c-0.365,0.267-0.861,0.229-1.181-0.089l-17.18-17.106c-0.322-0.32-0.36-0.818-0.092-1.184l75.754-103.384
	c0.164-0.224,0.388-0.348,0.665-0.37c0.272-0.024,0.517,0.067,0.714,0.265l44.693,44.705c0.197,0.196,0.286,0.437,0.264,0.713
	c-0.021,0.277-0.146,0.501-0.37,0.665l-5.273,3.87c-3.339,2.451-4.06,7.145-1.609,10.484c2.451,3.34,7.146,4.058,10.484,1.609
	l5.273-3.87c3.746-2.749,6.098-6.983,6.452-11.616c0.354-4.633-1.327-9.175-4.613-12.461l-44.693-44.704
	c-3.287-3.288-7.825-4.969-12.467-4.616c-4.636,0.355-8.871,2.709-11.619,6.46l-75.754,103.384
	c-4.683,6.391-4.007,15.088,1.607,20.679L313.381,176.278z M459.432,316.955l-71.629-52.482c6.112-5.12,9.905-12.795,9.905-21.282
	v-53.569c0-8.486-3.793-16.161-9.905-21.281l71.629-52.482c7.477-5.478,12.172-13.921,12.881-23.163s-2.643-18.302-9.198-24.857
	L404.569,9.293c-6.555-6.555-15.615-9.909-24.857-9.199c-9.242,0.709-17.685,5.404-23.163,12.881l-46.744,63.798
	c-16.57-8.544-35.028-13.044-53.803-13.044s-37.233,4.5-53.803,13.045l-46.744-63.798c-5.479-7.477-13.921-12.172-23.164-12.881
	c-9.248-0.709-18.302,2.644-24.857,9.199L48.887,67.839c-6.555,6.555-9.907,15.615-9.198,24.857s5.404,17.685,12.881,23.163
	l71.629,52.482c-6.112,5.12-9.905,12.795-9.905,21.281v53.569c0,8.486,3.793,16.161,9.905,21.282L52.57,316.955
	c-7.477,5.478-12.172,13.921-12.881,23.164c-0.709,9.242,2.644,18.302,9.198,24.856l58.546,58.546
	c3.724,3.724,8.257,6.414,13.173,7.913l-1.789,15.602c0,0.002-0.001,0.004-0.001,0.006l-3.042,26.541
	c-1.119,9.757,1.989,19.557,8.526,26.886c6.538,7.33,15.919,11.533,25.741,11.533h211.92c9.821,0,19.204-4.204,25.741-11.533
	c6.537-7.329,9.645-17.129,8.526-26.886l-3.043-26.541c0-0.002,0-0.004-0.001-0.006l-1.789-15.603
	c4.916-1.499,9.449-4.189,13.173-7.913l58.546-58.546c6.554-6.554,9.907-15.614,9.198-24.856
	C471.604,330.875,466.909,322.433,459.432,316.955z M368.648,21.841c2.888-3.942,7.339-6.417,12.211-6.79
	c0.429-0.033,0.857-0.049,1.284-0.049c4.419,0,8.668,1.748,11.819,4.898l58.546,58.546c3.455,3.455,5.222,8.231,4.849,13.104
	c-0.374,4.872-2.849,9.322-6.79,12.21l-116.963,85.698c-6.703,4.911-15.833,4.21-21.708-1.665l-23.753-23.753l-0.004-0.004
	l-3.524-3.524c-5.875-5.875-6.576-15.004-1.665-21.708L368.648,21.841z M244.466,270.973h23.071
	c-4.676,10.184-3.69,22.343,3.314,31.902l54.457,74.325H186.695l54.457-74.325C248.155,293.316,249.142,281.156,244.466,270.973z
	 M232.272,255.973l-2.615-2.615l13.579-13.579c3.793,2.08,8.143,3.265,12.765,3.265c4.622,0,8.972-1.185,12.765-3.265l13.579,13.579
	l-2.615,2.615H232.272z M256.001,189.77c-4.622,0-8.972,1.185-12.765,3.265l-13.579-13.579l2.615-2.615h47.459l2.615,2.615
	l-13.579,13.579C264.974,190.956,260.623,189.77,256.001,189.77z M267.638,216.407c0,6.416-5.22,11.636-11.637,11.636
	s-11.637-5.22-11.637-11.636c0-6.417,5.22-11.637,11.637-11.637C262.418,204.77,267.638,209.991,267.638,216.407z M232.63,203.642
	c-2.08,3.793-3.265,8.143-3.265,12.765s1.185,8.972,3.265,12.765l-13.579,13.579l-8.337-8.337
	c-11.146-11.146-28.465-12.475-41.18-3.158l-32.363,23.712c-4.691-1.934-7.876-6.51-7.876-11.777v-53.569
	c0-5.267,3.186-9.844,7.876-11.777l32.363,23.712c5.663,4.149,12.237,6.186,18.774,6.186c8.142,0,16.224-3.162,22.406-9.345
	l8.337-8.337L232.63,203.642z M279.373,229.172c2.08-3.793,3.265-8.143,3.265-12.765s-1.185-8.973-3.265-12.765l13.579-13.579
	l8.337,8.337c6.183,6.183,14.264,9.345,22.406,9.345c6.536,0,13.112-2.039,18.774-6.186l32.363-23.712
	c4.691,1.934,7.876,6.51,7.876,11.777v53.569c0,5.267-3.186,9.844-7.877,11.777l-32.363-23.712
	c-12.716-9.317-30.035-7.989-41.18,3.158l-8.337,8.337L279.373,229.172z M256.001,78.729c15.585,0,30.915,3.556,44.811,10.317
	l-29.962,40.893c-7.004,9.559-7.991,21.718-3.314,31.902h-23.071c4.676-10.183,3.69-22.343-3.314-31.902l-29.962-40.893
	C225.087,82.285,240.416,78.729,256.001,78.729z M61.435,103.76c-3.941-2.888-6.417-7.338-6.79-12.21
	c-0.374-4.872,1.394-9.649,4.849-13.104L118.04,19.9c3.151-3.151,7.4-4.898,11.819-4.898c0.426,0,0.855,0.017,1.284,0.049
	c4.872,0.374,9.323,2.849,12.211,6.79l50.653,69.132c0.004,0.006,0.008,0.011,0.012,0.017l35.033,47.814
	c4.911,6.703,4.211,15.833-1.665,21.708l-27.28,27.28c-5.877,5.875-15.006,6.576-21.709,1.665L61.435,103.76z M118.04,412.914
	l-58.546-58.546c-3.455-3.455-5.222-8.231-4.849-13.103c0.374-4.873,2.849-9.323,6.79-12.211l116.963-85.698
	c2.985-2.187,6.451-3.261,9.897-3.261c4.291,0,8.553,1.667,11.812,4.926l27.28,27.28c5.876,5.876,6.576,15.005,1.665,21.708
	l-85.698,116.964c-2.888,3.941-7.339,6.417-12.211,6.79C126.27,418.134,121.495,416.369,118.04,412.914z M376.508,490.484
	c-3.749,4.203-8.915,6.518-14.546,6.518H150.041c-5.632,0-10.798-2.314-14.546-6.518c-3.749-4.203-5.46-9.599-4.818-15.194
	l2.291-19.984h199.427c4.142,0,7.5-3.358,7.5-7.5s-3.358-7.5-7.5-7.5H134.687l0.919-8.02c7.926-1.455,15.032-5.875,19.848-12.448
	l20.25-27.639h160.594l20.251,27.639c4.815,6.573,11.922,10.992,19.848,12.448l0.919,8.02h-16.52c-4.142,0-7.5,3.358-7.5,7.5
	s3.358,7.5,7.5,7.5h18.24l2.291,19.984C381.967,480.885,380.256,486.281,376.508,490.484z M452.508,354.368l-58.546,58.546
	c-3.456,3.456-8.237,5.221-13.103,4.849c-4.872-0.374-9.323-2.849-12.211-6.79L282.95,294.009
	c-4.911-6.702-4.211-15.832,1.665-21.707l3.519-3.519c0.004-0.004,0.009-0.008,0.013-0.013l23.748-23.748
	c3.259-3.259,7.52-4.926,11.812-4.926c3.446,0,6.912,1.074,9.897,3.261l116.963,85.698c3.941,2.888,6.417,7.338,6.79,12.211
	C457.731,346.137,455.964,350.913,452.508,354.368z M141.654,397.705l75.754-103.383c4.683-6.391,4.007-15.087-1.607-20.679
	l-17.18-17.107c-5.596-5.571-14.276-6.224-20.641-1.553l-67.052,49.208c-3.339,2.451-4.06,7.145-1.609,10.484
	c2.452,3.34,7.146,4.059,10.484,1.609l67.052-49.207c0.365-0.268,0.862-0.229,1.181,0.089l17.18,17.107
	c0.322,0.32,0.36,0.818,0.092,1.184l-75.754,103.384c-0.164,0.224-0.388,0.349-0.665,0.37c-0.278,0.023-0.518-0.068-0.713-0.264
	l-44.694-44.705c-0.196-0.196-0.285-0.436-0.264-0.713s0.145-0.501,0.37-0.665l14.092-10.342c3.339-2.451,4.06-7.145,1.609-10.484
	c-2.451-3.34-7.144-4.058-10.484-1.609L74.714,330.77c-3.747,2.749-6.098,6.983-6.452,11.617c-0.354,4.633,1.328,9.174,4.612,12.46
	l44.694,44.705c2.998,2.999,7.042,4.662,11.247,4.662c0.406,0,0.813-0.016,1.221-0.047
	C134.671,403.81,138.906,401.455,141.654,397.705z M437.299,330.754L333.915,255c-6.392-4.684-15.089-4.006-20.679,1.607
	l-17.108,17.18c-5.57,5.595-6.223,14.275-1.552,20.64l75.785,103.267c2.749,3.746,6.983,6.098,11.616,6.451
	c0.407,0.031,0.813,0.047,1.217,0.047c4.204,0,8.246-1.663,11.245-4.659l44.705-44.693c3.288-3.288,4.97-7.832,4.615-12.467
	C443.404,337.738,441.049,333.503,437.299,330.754z M428.538,344.232l-44.705,44.693c-0.197,0.197-0.432,0.285-0.714,0.265
	c-0.276-0.022-0.5-0.146-0.665-0.37l-75.786-103.267c-0.267-0.365-0.23-0.861,0.089-1.182l17.107-17.18
	c0.177-0.179,0.41-0.27,0.644-0.27c0.188,0,0.376,0.059,0.539,0.178l103.384,75.754c0.224,0.164,0.349,0.388,0.37,0.665
	C428.824,343.796,428.735,344.036,428.538,344.232z"/>
<g>
</g>
<g>
</g>
<g>
</g>
<g>
</g>
<g>
</g>
<g>
</g>
<g>
</g>
<g>
</g>
<g>
</g>
<g>
</g>
<g>
</g>
<g>
</g>
<g>
</g>
<g>
</g>
<g>
</g>
</svg>
