<?xml version="1.0" encoding="iso-8859-1"?>
<!-- Generator: Adobe Illustrator 19.0.0, SVG Export Plug-In . SVG Version: 6.00 Build 0)  -->
<svg version="1.1" id="Capa_1" xmlns="http://www.w3.org/2000/svg" xmlns:xlink="http://www.w3.org/1999/xlink" x="0px" y="0px"
	 viewBox="0 0 491.52 491.52" style="enable-background:new 0 0 491.52 491.52;" xml:space="preserve">
<circle style="fill:#45B39C;" cx="245.76" cy="245.76" r="245.76"/>
<path style="fill:#31978C;" d="M345.503,198.423v-16.754v-71.681H146.017v71.681v16.754l0,0v53.176
	c0,7.644,6.197,13.839,13.841,13.839h61.421v35.786c0,12.039-1.978,23.939-5.017,35.588c-1.175,4.504-1.817,13.857-1.817,17.589
	c0,17.761,14.399,32.159,32.16,32.159s32.16-14.398,32.16-32.159c0-3.733-0.642-13.086-1.817-17.589
	c-3.039-11.649-5.017-23.549-5.017-35.588v-35.786h59.731c7.644,0,13.84-6.196,13.84-13.839V198.423L345.503,198.423z
	 M246.605,372.146c-5.329,0-9.648-5.159-9.648-11.524c0-6.365,4.319-11.524,9.648-11.524c5.329,0,9.648,5.159,9.648,11.524
	C256.253,366.987,251.934,372.146,246.605,372.146z"/>
<path style="fill:#DC8744;" d="M276.948,331.783c-3.039-11.649-5.017-23.549-5.017-35.588V260.41h-50.652v35.786
	c0,12.039-1.978,23.939-5.017,35.588c-1.175,4.504-1.817,13.857-1.817,17.589c0,17.761,14.399,32.159,32.16,32.159
	s32.16-14.398,32.16-32.159C278.765,345.64,278.124,336.287,276.948,331.783z M246.605,367.117c-5.329,0-9.648-5.159-9.648-11.524
	c0-6.365,4.319-11.524,9.648-11.524c5.329,0,9.648,5.159,9.648,11.524C256.253,361.958,251.934,367.117,246.605,367.117z"/>
<path style="fill:#EBF0F3;" d="M146.017,193.395v53.175c0,7.644,6.197,13.84,13.841,13.84h171.804c7.644,0,13.84-6.196,13.84-13.84
	v-53.175H146.017z"/>
<rect x="146.017" y="176.64" style="fill:#64798A;" width="199.485" height="16.753"/>
<g>
	<rect x="146.017" y="104.96" style="fill:#E56353;" width="199.485" height="71.68"/>
	<path style="fill:#E56353;" d="M302.585,176.641v33.766c0,6.377,5.17,11.546,11.547,11.546s11.546-5.169,11.546-11.546v-33.766
		H302.585z"/>
	<path style="fill:#E56353;" d="M279.494,176.641v8.624c0,6.376,5.17,11.546,11.546,11.546c6.376,0,11.546-5.169,11.546-11.546
		v-8.624H279.494z"/>
	<path style="fill:#E56353;" d="M167.608,176.641v18.681c0,6.376,5.17,11.546,11.546,11.546c6.377,0,11.546-5.169,11.546-11.546
		v-18.681H167.608z"/>
</g>
<g>
</g>
<g>
</g>
<g>
</g>
<g>
</g>
<g>
</g>
<g>
</g>
<g>
</g>
<g>
</g>
<g>
</g>
<g>
</g>
<g>
</g>
<g>
</g>
<g>
</g>
<g>
</g>
<g>
</g>
</svg>
